<svg width="45" height="44" viewBox="0 0 45 44" fill="none" xmlns="http://www.w3.org/2000/svg">
<path d="M20.874 2.03672C16.3125 2.60391 12.1992 4.99297 9.56251 8.60235C8.80666 9.6336 7.74318 11.7133 7.33888 12.9336C5.62501 18.2102 6.76759 23.8391 10.3975 28.0758C11.2149 29.0297 11.9707 29.7086 13.1397 30.5766C14.2647 31.4102 15.1787 32.2695 15.8115 33.0859C16.4531 33.9109 16.5322 34.0398 18.5449 37.4688C19.4766 39.05 20.3555 40.5023 20.4961 40.6914L20.751 41.0352L19.3447 41.0781C18.1319 41.1125 17.9209 41.1469 17.7627 41.2844C17.499 41.525 17.5078 42.0492 17.7979 42.3242L18.0088 42.5391H22.7637H27.5274L27.7822 42.2898C28.0547 42.0234 28.0986 41.7828 27.9317 41.482C27.7295 41.1125 27.6153 41.0867 26.1299 41.0781C25.3389 41.0781 24.6973 41.0523 24.6973 41.018C24.6973 40.9836 24.7764 40.8805 24.8643 40.7859C24.961 40.6828 25.8838 39.1617 26.9297 37.4C27.9668 35.6469 29.0127 33.9195 29.2588 33.5758C29.9883 32.5531 30.709 31.8484 31.9746 30.9203C33.4336 29.8633 35.2266 28.1273 36.0615 26.9844C38.6983 23.332 39.6387 18.5625 38.584 14.1539C37.3975 9.17813 33.583 4.87266 28.7315 3.04219C26.666 2.26016 25.0049 1.96797 22.7197 1.99375C21.8496 1.99375 21.0235 2.01953 20.874 2.03672ZM25.7344 3.67813C33.8028 5.39688 38.8477 12.925 37.2129 20.7969C37.1426 21.1492 36.9229 21.8883 36.7383 22.4383C35.7627 25.3086 33.961 27.6547 31.2451 29.6055C30.0322 30.4734 28.8281 31.6336 28.1162 32.6219C27.8438 32.9914 26.7627 34.7531 25.7168 36.5234C24.6621 38.2938 23.6953 39.8578 23.5459 40.0039C23.3086 40.2359 23.2383 40.2617 22.7197 40.2617C22.1836 40.2617 22.1309 40.2445 21.8584 39.9609C21.6914 39.7977 20.7158 38.225 19.6875 36.4805C18.6592 34.7273 17.6133 33.0086 17.3672 32.6563C16.6992 31.7109 15.4863 30.5078 14.1944 29.5281C12.8672 28.5227 11.9619 27.6633 11.1533 26.6406C8.91212 23.8047 7.8838 20.5047 8.10353 16.8008C8.49025 10.1836 13.6582 4.675 20.5225 3.55782C21.6035 3.38594 24.6797 3.45469 25.7344 3.67813Z" fill="#FF751A"/>
<path d="M21.1025 4.99297C17.9297 5.39687 14.792 7.04687 12.7529 9.40156C10.4326 12.0828 9.36034 15.2625 9.58886 18.7773C9.74706 21.1148 10.5996 23.4266 12.0146 25.3773C12.6738 26.2797 14.168 27.7492 15.0996 28.3937C16.5234 29.382 18.4131 30.1727 20.2588 30.568C21.2783 30.7914 24.2666 30.7828 25.3125 30.568C27.0527 30.207 28.7578 29.5023 30.2344 28.5484C31.2627 27.8781 33.0293 26.1422 33.7412 25.1023C34.7783 23.5727 35.5078 21.8367 35.833 20.1094C36.0615 18.8633 36.0439 16.6547 35.7891 15.4C34.6465 9.83125 30.0674 5.66328 24.3457 4.98437C23.4932 4.88125 21.9199 4.88984 21.1025 4.99297ZM25.0488 6.56562C27.4131 7.06406 29.3994 8.1125 31.0693 9.75391C32.7832 11.4211 33.8115 13.3117 34.3389 15.7352C34.5498 16.7234 34.5498 18.9234 34.3389 19.9547C33.8818 22.1805 32.8447 24.1398 31.2275 25.7898C29.4609 27.5859 27.1494 28.7805 24.6269 29.1844C23.291 29.3992 21.2607 29.3133 19.9512 28.9781C15.3809 27.8266 11.9443 24.2 11.206 19.7656C11.0391 18.7258 11.0391 16.9125 11.206 15.9328C12.0498 11.0773 15.9609 7.30469 21.0059 6.48828C21.9551 6.33359 24.1348 6.37656 25.0488 6.56562Z" fill="#FF751A"/>
<path d="M17.877 11.8938C15.4952 13.1313 13.4912 14.1969 13.4034 14.2656C13.1485 14.4719 13.0869 14.7555 13.2188 15.0648C13.3155 15.2969 13.5176 15.443 14.3965 15.8984L15.46 16.4484L15.4864 18.7602L15.5127 21.0805L16.0664 21.5703C17.0772 22.4641 18.545 23.2031 20.2149 23.6586C20.7774 23.8133 21.1114 23.8391 22.5 23.8391C23.8711 23.8391 24.2315 23.8047 24.7852 23.6586C26.4463 23.2117 27.9141 22.4641 28.9336 21.5703L29.4873 21.0805L29.5137 18.7602L29.5401 16.4398L29.751 16.3453L29.9619 16.2508L29.9883 19.3789L30.0147 22.4984L30.2256 22.7219C30.5069 23.0141 30.9991 23.0313 31.2715 22.7477C31.4649 22.55 31.4649 22.5242 31.4649 19.0438C31.4649 15.5891 31.4649 15.5461 31.6582 15.2969C31.9131 14.9617 31.9043 14.5664 31.6319 14.3172C31.5176 14.2055 29.4698 13.1055 27.0879 11.868C23.8975 10.218 22.6758 9.625 22.4737 9.6336C22.2891 9.64219 20.751 10.3898 17.877 11.8938ZM25.9366 12.9422C27.8174 13.9133 29.3731 14.7469 29.3994 14.7813C29.4434 14.85 22.6846 18.3906 22.5088 18.3906C22.2979 18.3906 15.5567 14.8328 15.627 14.7641C15.6973 14.6953 22.4209 11.1805 22.4912 11.1719C22.5088 11.1719 24.0645 11.9711 25.9366 12.9422ZM19.6963 18.6484C21.542 19.6195 22.2715 19.9633 22.5 19.9633C22.7285 19.9633 23.458 19.6281 25.3828 18.6227C26.7979 17.875 27.9756 17.2734 28.002 17.2734C28.0196 17.2734 28.0284 17.9953 28.0196 18.8805L27.9932 20.4875L27.2461 20.9859C26.4375 21.5273 25.4444 21.9656 24.4776 22.2234C24.003 22.3523 23.5547 22.3867 22.5 22.3867C21.4453 22.3867 20.9971 22.3523 20.5225 22.2234C19.5557 21.9656 18.5625 21.5273 17.7539 20.9859L17.0069 20.4875L16.9805 18.8719C16.9629 17.557 16.9805 17.2648 17.0772 17.2992C17.1387 17.325 18.3164 17.9266 19.6963 18.6484Z" fill="#FF751A"/>
</svg>
