<svg width="184" height="46" viewBox="0 0 184 46" fill="none" xmlns="http://www.w3.org/2000/svg">
<path d="M15.8827 0.0505134C10.8222 0.693982 6.25898 3.40435 3.33385 7.49915C2.49532 8.66909 1.31551 11.0285 0.866992 12.4129C-1.03434 18.3991 0.233214 24.785 4.26014 29.5916C5.16693 30.6738 6.00547 31.444 7.30228 32.4287C8.55034 33.3744 9.56438 34.3493 10.2664 35.2755C10.9782 36.2115 11.0659 36.3577 13.2988 40.2478C14.3323 42.0417 15.3074 43.6894 15.4634 43.9039L15.7462 44.2938L14.1861 44.3426C12.8405 44.3816 12.6065 44.4206 12.431 44.5766C12.1385 44.8496 12.1482 45.4443 12.47 45.7563L12.704 46H23.2637L23.5465 45.7173C23.8488 45.415 23.8975 45.142 23.7123 44.8008C23.488 44.3816 23.3612 44.3523 21.7134 44.3426C20.8359 44.3426 20.1241 44.3133 20.1241 44.2743C20.1241 44.2353 20.2119 44.1183 20.3094 44.0111C20.4166 43.8941 21.4404 42.1684 22.6007 40.1698C23.7513 38.1809 24.9116 36.2212 25.1846 35.8313C25.9939 34.6711 26.7934 33.8716 28.1975 32.8186C29.816 31.6195 31.8051 29.6501 32.7314 28.3534C35.6565 24.2098 36.6998 18.7988 35.5298 13.7973C34.2135 8.15236 29.9818 3.26785 24.5996 1.19121C22.3082 0.304001 20.4654 -0.0274827 17.9303 0.00176585C16.965 0.00176585 16.0484 0.0310144 15.8827 0.0505134ZM21.2747 1.91267C30.2256 3.86258 35.8223 12.4032 34.0087 21.3337C33.9307 21.7334 33.687 22.5719 33.4822 23.1959C32.3999 26.4522 30.4011 29.1138 27.3882 31.327C26.0426 32.3117 24.7068 33.6279 23.917 34.7491C23.6148 35.1683 22.4155 37.1669 21.2552 39.1753C20.0851 41.1837 19.0126 42.9581 18.8468 43.1239C18.5835 43.3871 18.5055 43.4164 17.9303 43.4164C17.3355 43.4164 17.277 43.3969 16.9747 43.0751C16.7895 42.8899 15.7072 41.1057 14.5664 39.1266C13.4256 37.1377 12.2653 35.1878 11.9922 34.7881C11.2512 33.7156 9.90565 32.3507 8.47233 31.2392C7.00002 30.0985 5.99572 29.1236 5.09868 27.9634C2.61232 24.746 1.47152 21.0022 1.71528 16.8002C2.1443 9.29306 7.87756 3.04362 15.4926 1.77618C16.6919 1.58119 20.1046 1.65918 21.2747 1.91267Z" fill="#FF751A"/>
<path d="M16.1362 3.40434C12.6163 3.86257 9.13536 5.73448 6.87326 8.40585C4.29915 11.4477 3.10959 15.055 3.3631 19.0426C3.53861 21.6944 4.4844 24.3171 6.05422 26.5302C6.78551 27.5539 8.44308 29.2211 9.47663 29.9523C11.0562 31.0735 13.1525 31.9704 15.2001 32.4189C16.3312 32.6724 19.6463 32.6627 20.8066 32.4189C22.7372 32.0094 24.6288 31.21 26.2669 30.1278C27.4077 29.3673 29.3675 27.3979 30.1573 26.2182C31.3079 24.4828 32.1171 22.5134 32.4779 20.5538C32.7314 19.1401 32.7119 16.6344 32.4292 15.211C31.1616 8.89332 26.0816 4.16481 19.7341 3.39459C18.7883 3.2776 17.043 3.28735 16.1362 3.40434ZM20.5141 5.18851C23.137 5.75398 25.3406 6.94342 27.1932 8.80558C29.0945 10.697 30.2353 12.8419 30.8203 15.5912C31.0543 16.7124 31.0543 19.2083 30.8203 20.3783C30.3133 22.9034 29.1628 25.1263 27.3687 26.9982C25.4088 29.0358 22.8445 30.391 20.0461 30.8492C18.564 31.093 16.3117 30.9955 14.8589 30.6153C9.78864 29.3088 5.97622 25.1945 5.15718 20.1638C4.97193 18.9841 4.97193 16.9269 5.15718 15.8155C6.09323 10.307 10.4322 6.02696 16.0289 5.10076C17.082 4.92527 19.5001 4.97402 20.5141 5.18851Z" fill="#FF751A"/>
<path d="M12.5578 11.2332C9.9154 12.6371 7.6923 13.8461 7.59479 13.9241C7.31203 14.1581 7.24378 14.4798 7.39003 14.8308C7.49729 15.094 7.72155 15.2598 8.69659 15.7765L9.8764 16.4005L9.9349 21.6554L10.5492 22.2112C11.6705 23.2251 13.2988 24.0636 15.1514 24.5803C15.7754 24.7558 16.1459 24.785 17.6865 24.785C19.2076 24.785 19.6073 24.746 20.2216 24.5803C22.0644 24.0733 23.6928 23.2251 24.8238 22.2112L25.4381 21.6554L25.4966 16.3907L25.9646 16.1762L26.0231 23.2641L26.2571 23.5176C26.5691 23.8491 27.1152 23.8686 27.4174 23.5469C27.6319 23.3226 27.6319 23.2934 27.6319 19.3448C27.6319 15.4255 27.6319 15.3768 27.8464 15.094C28.1292 14.7138 28.1195 14.2653 27.8172 13.9826C27.6904 13.8558 25.4186 12.6079 22.7762 11.204C19.2368 9.33206 17.8815 8.65934 17.6572 8.66909C17.4525 8.67884 15.7462 9.52705 12.5578 11.2332ZM21.4989 12.4227C23.5855 13.5243 25.3113 14.4701 25.3406 14.5091C25.3893 14.587 17.8913 18.6038 17.6962 18.6038C17.4622 18.6038 9.98365 14.5675 10.0617 14.4896C10.1397 14.4116 17.5987 10.424 17.6767 10.4143C17.6962 10.4143 19.4221 11.321 21.4989 12.4227ZM14.5761 18.8963C16.6237 19.998 17.433 20.388 17.6865 20.388C17.94 20.388 18.7493 20.0078 20.8846 18.8671C22.4545 18.0189 23.761 17.3364 23.7903 17.3364C23.8098 17.3364 23.8195 18.1554 23.8098 19.1596L23.7805 20.9827L22.9517 21.5482C22.0547 22.1624 20.9529 22.6596 19.8803 22.9521C19.3538 23.0984 18.8565 23.1374 17.6865 23.1374C16.5164 23.1374 16.0192 23.0984 15.4926 22.9521C14.4201 22.6596 13.3183 22.1624 12.4213 21.5482L11.5925 20.9827L11.5632 19.1498C11.5437 17.6581 11.5632 17.3267 11.6705 17.3657C11.7387 17.3949 13.0453 18.0774 14.5761 18.8963Z" fill="#FF751A"/>
<path d="M48.225 34.1C47.5917 34.1 46.95 33.9917 46.3 33.775C45.65 33.5417 45.0583 33.1833 44.525 32.7C43.9917 32.2167 43.5583 31.6083 43.225 30.875C42.9083 30.125 42.75 29.225 42.75 28.175C42.75 26.925 42.9167 25.8833 43.25 25.05C43.5833 24.2167 44.0167 23.5583 44.55 23.075C45.0833 22.5917 45.6667 22.25 46.3 22.05C46.95 21.8333 47.5833 21.725 48.2 21.725C48.9333 21.725 49.55 21.825 50.05 22.025C50.5667 22.2083 50.9833 22.4333 51.3 22.7C51.6333 22.9667 51.8833 23.225 52.05 23.475C52.2167 23.7083 52.325 23.8667 52.375 23.95L49.35 25.575L48.275 24.075H48.075C47.7583 24.075 47.4583 24.175 47.175 24.375C46.9083 24.5583 46.675 24.8333 46.475 25.2C46.275 25.55 46.1167 25.9667 46 26.45C45.9 26.9333 45.85 27.4667 45.85 28.05C45.85 28.7 45.95 29.3083 46.15 29.875C46.35 30.425 46.6583 30.875 47.075 31.225C47.5083 31.5583 48.0667 31.725 48.75 31.725C49.2333 31.725 49.6583 31.65 50.025 31.5C50.3917 31.35 50.7 31.1833 50.95 31C51.2167 30.8 51.4167 30.6417 51.55 30.525L52.2 32.7C51.75 33.1667 51.175 33.5167 50.475 33.75C49.775 33.9833 49.025 34.1 48.225 34.1ZM57.1166 34.1C56.3499 34.1 55.6916 33.9583 55.1416 33.675C54.6083 33.375 54.1999 32.975 53.9166 32.475C53.6333 31.9583 53.4916 31.3917 53.4916 30.775C53.4916 30.0417 53.6749 29.425 54.0416 28.925C54.4249 28.425 54.9166 28.025 55.5166 27.725C56.1333 27.4083 56.7999 27.1833 57.5166 27.05C58.2333 26.9 58.9333 26.8167 59.6166 26.8V24.825C59.6166 24.6417 59.4833 24.475 59.2166 24.325C58.9666 24.1583 58.5583 24.075 57.9916 24.075C57.8583 24.075 57.7249 24.0833 57.5916 24.1C57.4583 24.1 57.3499 24.1167 57.2666 24.15L56.6166 26L53.5166 24.65C53.8666 23.8667 54.4666 23.1833 55.3166 22.6C56.1666 22.0167 57.1749 21.725 58.3416 21.725C59.0583 21.725 59.7416 21.85 60.3916 22.1C61.0416 22.35 61.5749 22.7667 61.9916 23.35C62.4249 23.9333 62.6416 24.7333 62.6416 25.75V31.375C62.6416 31.5917 62.6833 31.7417 62.7666 31.825C62.8666 31.8917 62.9749 31.925 63.0916 31.925C63.1749 31.925 63.2499 31.9167 63.3166 31.9C63.3999 31.8833 63.4499 31.875 63.4666 31.875L63.9166 33.275C63.7999 33.375 63.5666 33.5417 63.2166 33.775C62.8666 33.9917 62.4333 34.1 61.9166 34.1C61.4166 34.1 60.9999 33.9917 60.6666 33.775C60.3499 33.5583 60.0999 33.2667 59.9166 32.9C59.5833 33.2333 59.1749 33.5167 58.6916 33.75C58.2249 33.9833 57.6999 34.1 57.1166 34.1ZM57.7166 31.7C58.1833 31.7 58.5833 31.575 58.9166 31.325C59.2666 31.0583 59.4999 30.7917 59.6166 30.525V28.9C59.2999 28.9167 58.9666 28.95 58.6166 29C58.2666 29.05 57.9333 29.1333 57.6166 29.25C57.3166 29.3667 57.0666 29.5333 56.8666 29.75C56.6833 29.95 56.5916 30.2167 56.5916 30.55C56.5916 30.8333 56.6833 31.1 56.8666 31.35C57.0499 31.5833 57.3333 31.7 57.7166 31.7ZM65.4139 34L65.0889 32.425L66.5389 32.075V24.05H65.2639L64.9889 22.35L68.6889 21.7L69.5639 22.625C69.8805 22.3917 70.3055 22.1833 70.8389 22C71.3722 21.8167 71.9139 21.725 72.4639 21.725C73.0972 21.725 73.6805 21.825 74.2139 22.025C74.7472 22.2083 75.1889 22.5 75.5389 22.9C75.9389 22.6 76.3389 22.3667 76.7389 22.2C77.1555 22.0333 77.5722 21.9167 77.9889 21.85C78.4055 21.7667 78.8305 21.725 79.2639 21.725C79.9472 21.725 80.5722 21.8417 81.1389 22.075C81.7222 22.3083 82.1805 22.6667 82.5139 23.15C82.8639 23.6333 83.0389 24.2583 83.0389 25.025V32.1L84.3139 32.4L84.2889 34H78.6139V32.425L80.0139 32.125V25.725C80.0139 25.1917 79.8722 24.8 79.5889 24.55C79.3222 24.3 78.9472 24.175 78.4639 24.175C77.9805 24.175 77.5222 24.3 77.0889 24.55C76.6722 24.7833 76.4055 24.9667 76.2889 25.1V32.15L77.6139 32.4L77.5889 34H72.0889V32.4L73.2889 32.125V25.725C73.2889 25.1917 73.1472 24.8 72.8639 24.55C72.5972 24.3 72.2222 24.175 71.7389 24.175C71.2555 24.175 70.7972 24.3 70.3639 24.55C69.9472 24.7833 69.6805 24.9667 69.5639 25.1V32.125L70.9889 32.425L70.9639 34H65.4139ZM85.8496 40.825L85.4496 39.25L86.7246 38.875V23.95L85.4496 24.125L85.1246 22.325L88.8746 21.725L89.4496 22.3C89.7329 22.15 90.0746 22.0167 90.4746 21.9C90.8746 21.7833 91.3496 21.725 91.8996 21.725C92.8996 21.725 93.7663 21.9667 94.4996 22.45C95.2329 22.9333 95.7996 23.625 96.1996 24.525C96.6163 25.4083 96.8246 26.475 96.8246 27.725C96.8246 28.9417 96.6663 29.9667 96.3496 30.8C96.0329 31.6167 95.6079 32.2667 95.0746 32.75C94.5413 33.2333 93.9413 33.5833 93.2746 33.8C92.6079 34 91.9329 34.1 91.2496 34.1C90.9829 34.1 90.7246 34.0833 90.4746 34.05C90.2246 34.0167 89.9829 33.9667 89.7496 33.9V38.55L92.6996 39.2L92.6746 40.825H85.8496ZM91.2496 31.75C91.6996 31.75 92.1079 31.6167 92.4746 31.35C92.8579 31.0667 93.1579 30.6417 93.3746 30.075C93.6079 29.4917 93.7246 28.75 93.7246 27.85C93.7246 26.9833 93.6163 26.275 93.3996 25.725C93.1996 25.1583 92.9163 24.7417 92.5496 24.475C92.1996 24.2083 91.7913 24.075 91.3246 24.075C91.0079 24.075 90.7079 24.1167 90.4246 24.2C90.1579 24.2833 89.9329 24.3917 89.7496 24.525V31.425C89.8996 31.525 90.1163 31.6083 90.3996 31.675C90.6996 31.725 90.9829 31.75 91.2496 31.75ZM103.341 34.1C102.557 34.1 101.874 33.9667 101.291 33.7C100.707 33.4333 100.257 33.025 99.9408 32.475C99.6242 31.9083 99.4658 31.2 99.4658 30.35V24.05H98.1908L97.9158 22.375L101.616 21.7L102.491 22.65V29.775C102.491 30.0917 102.532 30.375 102.616 30.625C102.699 30.8583 102.816 31.0583 102.966 31.225C103.116 31.3917 103.291 31.5167 103.491 31.6C103.707 31.6667 103.941 31.7 104.191 31.7C104.641 31.7 105.057 31.5667 105.441 31.3C105.824 31.0333 106.082 30.7333 106.216 30.4V23.975L105.091 24.05L104.791 22.375L108.366 21.7L109.241 22.65V31.375C109.241 31.5917 109.282 31.7417 109.366 31.825C109.449 31.8917 109.541 31.925 109.641 31.925C109.724 31.925 109.799 31.9167 109.866 31.9C109.932 31.8833 109.974 31.875 109.991 31.875L110.466 33.275C110.366 33.3917 110.141 33.5583 109.791 33.775C109.457 33.9917 109.032 34.1 108.516 34.1C108.082 34.1 107.682 34.0083 107.316 33.825C106.966 33.6417 106.691 33.3333 106.491 32.9C106.107 33.3167 105.624 33.625 105.041 33.825C104.457 34.0083 103.891 34.1 103.341 34.1ZM117.067 34.1C116.101 34.1 115.176 33.9833 114.292 33.75C113.409 33.5 112.634 33.2417 111.967 32.975L112.467 28.15L114.567 28.325L114.767 31.1C114.984 31.15 115.276 31.225 115.642 31.325C116.026 31.425 116.451 31.475 116.917 31.475C117.451 31.475 117.934 31.4083 118.367 31.275C118.817 31.125 119.176 30.9 119.442 30.6C119.726 30.3 119.867 29.9083 119.867 29.425C119.867 28.975 119.751 28.6083 119.517 28.325C119.284 28.025 118.934 27.75 118.467 27.5C118.017 27.2333 117.434 26.9417 116.717 26.625C116.067 26.325 115.467 26.025 114.917 25.725C114.367 25.4083 113.884 25.0583 113.467 24.675C113.067 24.2917 112.751 23.8417 112.517 23.325C112.284 22.7917 112.167 22.15 112.167 21.4C112.167 20.4333 112.426 19.6 112.942 18.9C113.476 18.2 114.184 17.6583 115.067 17.275C115.967 16.8917 116.951 16.7 118.017 16.7C118.884 16.7 119.726 16.7667 120.542 16.9C121.376 17.0333 122.117 17.1917 122.767 17.375L123.142 22.125H121.042L119.817 19.475C119.601 19.4417 119.334 19.4083 119.017 19.375C118.701 19.3417 118.401 19.325 118.117 19.325C117.534 19.325 117.051 19.4167 116.667 19.6C116.301 19.7667 116.026 19.9917 115.842 20.275C115.659 20.5583 115.567 20.875 115.567 21.225C115.567 21.5583 115.667 21.8583 115.867 22.125C116.084 22.375 116.359 22.6083 116.692 22.825C117.042 23.025 117.409 23.2167 117.792 23.4C118.192 23.5667 118.576 23.7417 118.942 23.925C119.926 24.3917 120.734 24.8583 121.367 25.325C122.017 25.7917 122.501 26.3167 122.817 26.9C123.134 27.4833 123.292 28.175 123.292 28.975C123.292 29.9083 123.109 30.7 122.742 31.35C122.392 32 121.917 32.5333 121.317 32.95C120.717 33.35 120.042 33.6417 119.292 33.825C118.559 34.0083 117.817 34.1 117.067 34.1ZM125.35 34L125.075 32.4L126.475 32.075V24.05H125.2L124.925 22.35L128.625 21.7L129.5 22.625C129.817 22.3917 130.242 22.1833 130.775 22C131.309 21.8167 131.85 21.725 132.4 21.725C133.1 21.725 133.742 21.8417 134.325 22.075C134.909 22.3083 135.375 22.6667 135.725 23.15C136.075 23.6333 136.25 24.2583 136.25 25.025V32.175L137.625 32.4L137.6 34H131.975V32.4L133.225 32.125V25.725C133.225 25.1917 133.084 24.8 132.8 24.55C132.534 24.3 132.159 24.175 131.675 24.175C131.192 24.175 130.734 24.3 130.3 24.55C129.884 24.7833 129.617 24.9667 129.5 25.1V32.125L130.925 32.425L130.9 34H125.35ZM142.493 34.1C141.726 34.1 141.068 33.9583 140.518 33.675C139.984 33.375 139.576 32.975 139.293 32.475C139.009 31.9583 138.868 31.3917 138.868 30.775C138.868 30.0417 139.051 29.425 139.418 28.925C139.801 28.425 140.293 28.025 140.893 27.725C141.509 27.4083 142.176 27.1833 142.893 27.05C143.609 26.9 144.309 26.8167 144.993 26.8V24.825C144.993 24.6417 144.859 24.475 144.593 24.325C144.343 24.1583 143.934 24.075 143.368 24.075C143.234 24.075 143.101 24.0833 142.968 24.1C142.834 24.1 142.726 24.1167 142.643 24.15L141.993 26L138.893 24.65C139.243 23.8667 139.843 23.1833 140.693 22.6C141.543 22.0167 142.551 21.725 143.718 21.725C144.434 21.725 145.118 21.85 145.768 22.1C146.418 22.35 146.951 22.7667 147.368 23.35C147.801 23.9333 148.018 24.7333 148.018 25.75V31.375C148.018 31.5917 148.059 31.7417 148.143 31.825C148.243 31.8917 148.351 31.925 148.468 31.925C148.551 31.925 148.626 31.9167 148.693 31.9C148.776 31.8833 148.826 31.875 148.843 31.875L149.293 33.275C149.176 33.375 148.943 33.5417 148.593 33.775C148.243 33.9917 147.809 34.1 147.293 34.1C146.793 34.1 146.376 33.9917 146.043 33.775C145.726 33.5583 145.476 33.2667 145.293 32.9C144.959 33.2333 144.551 33.5167 144.068 33.75C143.601 33.9833 143.076 34.1 142.493 34.1ZM143.093 31.7C143.559 31.7 143.959 31.575 144.293 31.325C144.643 31.0583 144.876 30.7917 144.993 30.525V28.9C144.676 28.9167 144.343 28.95 143.993 29C143.643 29.05 143.309 29.1333 142.993 29.25C142.693 29.3667 142.443 29.5333 142.243 29.75C142.059 29.95 141.968 30.2167 141.968 30.55C141.968 30.8333 142.059 31.1 142.243 31.35C142.426 31.5833 142.709 31.7 143.093 31.7ZM155.842 34.1C155.209 34.1 154.567 33.9917 153.917 33.775C153.267 33.5417 152.676 33.1833 152.142 32.7C151.609 32.2167 151.176 31.6083 150.842 30.875C150.526 30.125 150.367 29.225 150.367 28.175C150.367 26.925 150.534 25.8833 150.867 25.05C151.201 24.2167 151.634 23.5583 152.167 23.075C152.701 22.5917 153.284 22.25 153.917 22.05C154.567 21.8333 155.201 21.725 155.817 21.725C156.551 21.725 157.167 21.825 157.667 22.025C158.184 22.2083 158.601 22.4333 158.917 22.7C159.251 22.9667 159.501 23.225 159.667 23.475C159.834 23.7083 159.942 23.8667 159.992 23.95L156.967 25.575L155.892 24.075H155.692C155.376 24.075 155.076 24.175 154.792 24.375C154.526 24.5583 154.292 24.8333 154.092 25.2C153.892 25.55 153.734 25.9667 153.617 26.45C153.517 26.9333 153.467 27.4667 153.467 28.05C153.467 28.7 153.567 29.3083 153.767 29.875C153.967 30.425 154.276 30.875 154.692 31.225C155.126 31.5583 155.684 31.725 156.367 31.725C156.851 31.725 157.276 31.65 157.642 31.5C158.009 31.35 158.317 31.1833 158.567 31C158.834 30.8 159.034 30.6417 159.167 30.525L159.817 32.7C159.367 33.1667 158.792 33.5167 158.092 33.75C157.392 33.9833 156.642 34.1 155.842 34.1ZM161.259 34L160.959 32.4L162.384 32.075V17.8H161.084L160.834 16.1L164.534 15.575L165.409 16.5V27.2L168.609 23.675H167.284L167.034 21.725H171.459L172.334 23.35L168.859 26.825L171.534 32.175L172.709 32.45L172.734 34H168.959L166.634 29.05L165.409 30.275V32.125L166.584 32.4L166.559 34H161.259ZM178.179 34.075C177.395 34.075 176.679 33.9333 176.029 33.65C175.395 33.3667 174.862 33.0083 174.429 32.575C174.012 32.125 173.712 31.6833 173.529 31.25L176.729 30.025L177.379 31.65C177.479 31.6667 177.612 31.6833 177.779 31.7C177.962 31.7167 178.145 31.725 178.329 31.725C178.495 31.725 178.67 31.6917 178.854 31.625C179.054 31.5417 179.22 31.4167 179.354 31.25C179.504 31.0833 179.579 30.8583 179.579 30.575C179.579 30.225 179.429 29.9583 179.129 29.775C178.845 29.575 178.52 29.4167 178.154 29.3C177.787 29.1833 177.487 29.0667 177.254 28.95C176.087 28.4833 175.27 27.95 174.804 27.35C174.337 26.7333 174.104 26.0667 174.104 25.35C174.104 24.6833 174.295 24.075 174.679 23.525C175.062 22.975 175.579 22.5417 176.229 22.225C176.879 21.8917 177.612 21.725 178.429 21.725C179.245 21.725 179.937 21.8583 180.504 22.125C181.07 22.3917 181.529 22.7167 181.879 23.1C182.245 23.4833 182.512 23.85 182.679 24.2L179.504 25.475L178.904 24.2C178.904 24.2 178.845 24.1833 178.729 24.15C178.629 24.1 178.487 24.075 178.304 24.075C178.054 24.075 177.845 24.1167 177.679 24.2C177.529 24.2667 177.412 24.375 177.329 24.525C177.245 24.6583 177.204 24.825 177.204 25.025C177.204 25.2917 177.354 25.525 177.654 25.725C177.97 25.925 178.362 26.125 178.829 26.325C179.312 26.5083 179.795 26.7333 180.279 27C180.895 27.3167 181.437 27.7333 181.904 28.25C182.387 28.75 182.629 29.4167 182.629 30.25C182.629 31.0667 182.42 31.7667 182.004 32.35C181.587 32.9167 181.037 33.35 180.354 33.65C179.687 33.9333 178.962 34.075 178.179 34.075Z" fill="#FF751A"/>
</svg>
