<svg width="48" height="48" viewBox="0 0 48 48" fill="none" xmlns="http://www.w3.org/2000/svg">
<g clip-path="url(#clip0_75_5)">
<path fill-rule="evenodd" clip-rule="evenodd" d="M-0.0292969 -0.0552979C15.9707 -0.0552979 31.9707 -0.0552979 47.9707 -0.0552979C47.9707 15.9447 47.9707 31.9447 47.9707 47.9447C31.9707 47.9447 15.9707 47.9447 -0.0292969 47.9447C-0.0292969 31.9447 -0.0292969 15.9447 -0.0292969 -0.0552979Z" fill="#F5F5F5"/>
<path fill-rule="evenodd" clip-rule="evenodd" d="M10.5073 4.58986C19.483 4.57142 28.4586 4.58986 37.4342 4.64516C37.7292 4.89461 37.9537 5.2817 38.1073 5.80645C38.1464 17.8986 38.1464 29.9908 38.1073 42.0829C38 42.7281 37.7756 43.1521 37.4342 43.3548C28.4586 43.4286 19.4829 43.4286 10.5073 43.3548C10.1659 43.1521 9.94145 42.7281 9.83415 42.0829C9.79511 29.9908 9.79511 17.8986 9.83415 5.80645C9.9802 5.2372 10.2046 4.83166 10.5073 4.58986Z" fill="#B6B6B6"/>
<path fill-rule="evenodd" clip-rule="evenodd" d="M11.9122 8.57143C19.9512 8.57143 27.9902 8.57143 36.0292 8.57143C36.0292 18.8571 36.0292 29.1429 36.0292 39.4286C27.9902 39.4286 19.9512 39.4286 11.9122 39.4286C11.9122 29.1429 11.9122 18.8571 11.9122 8.57143Z" fill="#F5F5F5"/>
<path fill-rule="evenodd" clip-rule="evenodd" d="M18 13.659C19.7073 13.3246 20.8097 14.6888 21.3073 17.7511C21.4304 20.9929 20.6597 23.0022 18.9951 23.7788C17.5753 23.9352 16.59 22.7739 16.039 20.2949C15.7045 17.0232 16.3582 14.8112 18 13.659Z" fill="#B6B6B6"/>
<path fill-rule="evenodd" clip-rule="evenodd" d="M33.9805 35.3364C27.3662 35.5574 20.732 35.6312 14.0781 35.5576C14.5256 33.7763 15.15 32.2463 15.9512 30.9677C16.652 30.0097 17.4325 29.641 18.2927 29.8618C18.7101 30.0313 19.1198 30.2525 19.522 30.5253C20.1863 31.0976 20.8692 31.5768 21.5707 31.9631C22.0749 32.1296 22.5823 32.1665 23.0927 32.0737C23.3041 31.9478 23.4993 31.7634 23.6781 31.5207C24.3593 30.123 25.0617 28.759 25.7854 27.4286C29.1188 22.3626 31.6261 23.5607 33.3073 31.023C33.6088 32.4184 33.8332 33.8561 33.9805 35.3364Z" fill="#B6B6B6"/>
<path fill-rule="evenodd" clip-rule="evenodd" d="M33.9805 35.3364C34.0334 35.4148 34.0529 35.5254 34.039 35.6682C27.3755 35.705 20.7219 35.6682 14.0781 35.5576C20.732 35.6312 27.3662 35.5574 33.9805 35.3364Z" fill="#DADADA"/>
</g>
<defs>
<clipPath id="clip0_75_5">
<rect width="48" height="48" fill="white"/>
</clipPath>
</defs>
</svg>
