<svg width="128" height="126" viewBox="0 0 128 126" fill="none" xmlns="http://www.w3.org/2000/svg">
<g clip-path="url(#clip0_67_33)">
<path fill-rule="evenodd" clip-rule="evenodd" d="M-0.078064 -0.145172C42.5886 -0.145172 85.2553 -0.145172 127.922 -0.145172C127.922 41.8549 127.922 83.8547 127.922 125.855C85.2553 125.855 42.5886 125.855 -0.078064 125.855C-0.078064 83.8547 -0.078064 41.8549 -0.078064 -0.145172Z" fill="#F5F5F5"/>
<path fill-rule="evenodd" clip-rule="evenodd" d="M28.0195 12.0484C51.9546 12 75.8895 12.0484 99.8244 12.1936C100.611 12.8483 101.21 13.8645 101.62 15.2419C101.724 46.9838 101.724 78.7259 101.62 110.468C101.333 112.161 100.735 113.274 99.8244 113.806C75.8895 114 51.9544 114 28.0195 113.806C27.109 113.274 26.5105 112.161 26.2244 110.468C26.1203 78.7259 26.1203 46.9838 26.2244 15.2419C26.6139 13.7477 27.2123 12.6831 28.0195 12.0484Z" fill="#B6B6B6"/>
<path fill-rule="evenodd" clip-rule="evenodd" d="M31.7659 22.5C53.2032 22.5 74.6407 22.5 96.0781 22.5C96.0781 49.5 96.0781 76.5 96.0781 103.5C74.6407 103.5 53.2032 103.5 31.7659 103.5C31.7659 76.5 31.7659 49.5 31.7659 22.5Z" fill="#F5F5F5"/>
<path fill-rule="evenodd" clip-rule="evenodd" d="M48 35.8548C52.5528 34.9772 55.4927 38.558 56.8195 46.5968C57.1478 55.1064 55.0925 60.3807 50.6537 62.4194C46.8675 62.8299 44.2399 59.7815 42.7708 53.2742C41.8788 44.6859 43.6218 38.8794 48 35.8548Z" fill="#B6B6B6"/>
<path fill-rule="evenodd" clip-rule="evenodd" d="M90.6146 92.7581C72.9764 93.3381 55.2854 93.5318 37.5414 93.3387C38.735 88.6628 40.3999 84.6465 42.5366 81.2903C44.4054 78.7756 46.4866 77.8076 48.7805 78.3871C49.8934 78.8322 50.9861 79.4128 52.0585 80.129C53.8301 81.6312 55.6513 82.8891 57.5219 83.9032C58.8664 84.3402 60.2193 84.4371 61.5805 84.1936C62.1443 83.8629 62.6647 83.3789 63.1414 82.7419C64.958 79.0728 66.8311 75.4923 68.761 72C77.6501 58.7018 84.3362 61.8468 88.8195 81.4355C89.6234 85.0982 90.2217 88.8724 90.6146 92.7581Z" fill="#B6B6B6"/>
<path fill-rule="evenodd" clip-rule="evenodd" d="M90.6146 92.7581C90.7557 92.9639 90.8077 93.2542 90.7707 93.629C73.0013 93.7257 55.2584 93.629 37.5414 93.3387C55.2854 93.5318 72.9764 93.3381 90.6146 92.7581Z" fill="#DADADA"/>
</g>
<defs>
<clipPath id="clip0_67_33">
<rect width="128" height="126" fill="white"/>
</clipPath>
</defs>
</svg>
