<svg width="335" height="180" viewBox="0 0 335 180" fill="none" xmlns="http://www.w3.org/2000/svg">
<g clip-path="url(#clip0_35_4)">
<path fill-rule="evenodd" clip-rule="evenodd" d="M-0.204285 -0.207367C111.462 -0.207367 223.129 -0.207367 334.796 -0.207367C334.796 59.7928 334.796 119.792 334.796 179.793C223.129 179.793 111.462 179.793 -0.204285 179.793C-0.204285 119.792 -0.204285 59.7928 -0.204285 -0.207367Z" fill="#F5F5F5"/>
<path fill-rule="evenodd" clip-rule="evenodd" d="M73.3324 17.212C135.975 17.1428 198.617 17.212 261.259 17.4194C263.319 18.3548 264.885 19.8064 265.957 21.7742C266.23 67.1197 266.23 112.466 265.957 157.811C265.208 160.23 263.642 161.82 261.259 162.581C198.617 162.857 135.974 162.857 73.3324 162.581C70.9494 161.82 69.383 160.23 68.6342 157.811C68.3617 112.466 68.3617 67.1197 68.6342 21.7742C69.6535 19.6395 71.2198 18.1187 73.3324 17.212Z" fill="#B6B6B6"/>
<path fill-rule="evenodd" clip-rule="evenodd" d="M83.1372 32.1429C139.243 32.1429 195.349 32.1429 251.454 32.1429C251.454 70.7143 251.454 109.286 251.454 147.857C195.349 147.857 139.243 147.857 83.1372 147.857C83.1372 109.286 83.1372 70.7143 83.1372 32.1429Z" fill="#F5F5F5"/>
<path fill-rule="evenodd" clip-rule="evenodd" d="M125.625 51.2212C137.54 49.9674 145.235 55.0829 148.707 66.5668C149.566 78.7235 144.187 86.2582 132.57 89.1705C122.661 89.757 115.784 85.4021 111.939 76.106C109.605 63.837 114.166 55.542 125.625 51.2212Z" fill="#B6B6B6"/>
<path fill-rule="evenodd" clip-rule="evenodd" d="M237.155 132.512C190.993 133.34 144.692 133.617 98.2531 133.341C101.377 126.661 105.734 120.924 111.326 116.129C116.217 112.537 121.664 111.154 127.668 111.982C130.581 112.617 133.44 113.447 136.247 114.47C140.883 116.616 145.65 118.413 150.546 119.862C154.064 120.486 157.605 120.624 161.168 120.277C162.643 119.804 164.005 119.113 165.253 118.203C170.007 112.961 174.91 107.846 179.96 102.857C203.225 83.8597 220.724 88.3526 232.457 116.336C234.561 121.569 236.127 126.961 237.155 132.512Z" fill="#B6B6B6"/>
<path fill-rule="evenodd" clip-rule="evenodd" d="M237.155 132.512C237.525 132.806 237.661 133.22 237.564 133.756C191.058 133.894 144.622 133.756 98.2531 133.341C144.692 133.617 190.993 133.34 237.155 132.512Z" fill="#DADADA"/>
</g>
<defs>
<clipPath id="clip0_35_4">
<rect width="335" height="180" fill="white"/>
</clipPath>
</defs>
</svg>
