<svg width="24" height="24" viewBox="0 0 24 24" fill="none" xmlns="http://www.w3.org/2000/svg">
<g clip-path="url(#clip0_49_3)">
<path opacity="0.972" fill-rule="evenodd" clip-rule="evenodd" d="M9.30469 -0.0234375C9.96094 -0.0234375 10.6172 -0.0234375 11.2734 -0.0234375C15.0555 0.456375 17.829 2.37825 19.5938 5.74219C20.0246 6.6442 20.3137 7.58953 20.4609 8.57812C20.4245 9.17705 20.1042 9.49739 19.5 9.53906C19.0758 9.52106 18.779 9.31791 18.6094 8.92969C17.879 5.46497 15.8242 3.20715 12.4453 2.15625C12.0442 2.05257 11.6379 1.98226 11.2266 1.94531C11.2343 2.33625 11.2266 2.72687 11.2031 3.11719C10.8899 3.73612 10.4133 3.90018 9.77344 3.60938C9.59109 3.48768 9.4583 3.32362 9.375 3.11719C9.35156 2.72687 9.34378 2.33625 9.35156 1.94531C7.07892 2.228 5.2117 3.24362 3.75 4.99219C2.73304 6.26869 2.13148 7.72181 1.94531 9.35156C2.33625 9.34378 2.72687 9.35156 3.11719 9.375C3.73612 9.68822 3.90018 10.1648 3.60938 10.8047C3.48768 10.987 3.32362 11.1198 3.11719 11.2031C2.72687 11.2266 2.33625 11.2343 1.94531 11.2266C2.43806 14.5799 4.25056 16.9002 7.38281 18.1875C7.88859 18.3647 8.40422 18.5054 8.92969 18.6094C9.49861 18.9233 9.66267 19.3842 9.42188 19.9922C9.23063 20.3066 8.94938 20.4629 8.57812 20.4609C5.59584 19.9319 3.26771 18.4163 1.59375 15.9141C0.703467 14.4852 0.164403 12.9383 -0.0234375 11.2734C-0.0234375 10.6172 -0.0234375 9.96094 -0.0234375 9.30469C0.499439 5.34342 2.56194 2.50748 6.16406 0.796875C7.17656 0.368031 8.22342 0.0945937 9.30469 -0.0234375Z" fill="black"/>
<path opacity="0.973" fill-rule="evenodd" clip-rule="evenodd" d="M9.96093 5.60156C10.5384 5.48799 10.9525 5.6911 11.2031 6.21094C11.2344 7.67967 11.2344 9.14846 11.2031 10.6172C11.1525 10.7342 11.09 10.8436 11.0156 10.9453C10.1016 11.8594 9.18749 12.7734 8.27343 13.6875C7.70048 14.0359 7.20829 13.95 6.79687 13.4297C6.61959 13.036 6.65085 12.661 6.89062 12.3047C7.7031 11.4922 8.51563 10.6797 9.32812 9.86719C9.34373 8.64844 9.35938 7.42969 9.37499 6.21094C9.48529 5.92102 9.68062 5.71791 9.96093 5.60156Z" fill="black"/>
<path opacity="0.972" fill-rule="evenodd" clip-rule="evenodd" d="M23.9765 16.6172C23.9765 17.1484 23.9765 17.6797 23.9765 18.2109C23.561 20.7753 22.1548 22.5643 19.7578 23.5781C19.2489 23.7623 18.7333 23.8952 18.2109 23.9766C17.6797 23.9766 17.1484 23.9766 16.6172 23.9766C13.7327 23.4753 11.8655 21.819 11.0156 19.0078C10.4459 16.0122 11.3912 13.6294 13.8515 11.8594C15.8143 10.7092 17.8611 10.5373 19.9922 11.3437C22.2451 12.405 23.5733 14.1628 23.9765 16.6172ZM17.3672 12.7266C19.3814 12.8283 20.8267 13.7814 21.7031 15.5859C22.5003 17.8591 21.9612 19.7419 20.0859 21.2344C18.3047 22.3906 16.5234 22.3906 14.7422 21.2344C12.9493 19.8241 12.379 18.0195 13.0312 15.8203C13.8461 13.9036 15.2914 12.8723 17.3672 12.7266Z" fill="black"/>
<path opacity="0.985" fill-rule="evenodd" clip-rule="evenodd" d="M15.2109 16.4766C16.6797 16.4687 18.1485 16.4766 19.6172 16.5C20.1446 16.7505 20.3399 17.1645 20.2031 17.7422C20.1015 18.0313 19.9062 18.2265 19.6172 18.3281C18.1484 18.3594 16.6796 18.3594 15.2109 18.3281C14.592 18.0149 14.4279 17.5383 14.7187 16.8984C14.8519 16.719 15.0159 16.5784 15.2109 16.4766Z" fill="black"/>
</g>
<defs>
<clipPath id="clip0_49_3">
<rect width="24" height="24" fill="white"/>
</clipPath>
</defs>
</svg>
