<svg width="24" height="24" viewBox="0 0 24 24" fill="#ff751a" xmlns="http://www.w3.org/2000/svg">
<g clip-path="url(#clip0_21_5)">
<path d="M9.225 0.740625C7.73438 1.14375 6.51562 1.48594 6.51562 1.5C6.51562 1.51406 7.75313 1.85625 9.2625 2.25937L12.0047 3L14.7469 2.26406C16.2516 1.86094 17.4844 1.51875 17.4844 1.50469C17.4844 1.47656 12 -0.00937512 11.9531 0.00468738C11.9391 0.00468738 10.7109 0.3375 9.225 0.740625Z" fill="#FF751A"/>
<path d="M16.7438 3.33749C16.7625 4.42499 16.8 4.57031 17.1563 4.91249C17.3953 5.14687 17.5735 5.19374 17.775 5.07656C18.0563 4.91249 18.061 4.61249 17.7891 4.34062L17.625 4.17656V3.28124V2.39062H17.175H16.725L16.7438 3.33749Z" fill="#FF751A"/>
<path d="M8.57812 4.27031V5.57812H12H15.4219V4.275V2.96719L13.7953 3.40781C12.8953 3.64687 12.0938 3.84375 12.0047 3.84375C11.8734 3.84375 9.75 3.3 8.80313 3.02344L8.57812 2.95781V4.27031Z" fill="#FF751A"/>
<path d="M7.51875 6.46875C7.42969 6.50156 6.09375 8.0625 6.09375 8.12813C6.09375 8.14219 8.7375 8.15625 11.9625 8.15625H17.8359L16.9781 7.29844L16.125 6.44531L11.8688 6.43594C9.52969 6.43125 7.575 6.44531 7.51875 6.46875Z" fill="#FF751A"/>
<path d="M5.57812 9.42187V9.84375H12H18.4219V9.42187V9H12H5.57812V9.42187Z" fill="#FF751A"/>
<path d="M1.6875 9.87656C1.52812 9.9375 1.425 10.0875 1.07344 10.7906C0.867187 11.1984 0.703125 11.5406 0.703125 11.5547C0.703125 11.5687 1.8 11.5781 3.14062 11.5781H5.58281L5.56875 11.1469L5.55469 10.7156L5.37187 10.6781C5.04375 10.6078 4.80937 10.3641 4.73437 10.0078L4.70625 9.86719L3.23437 9.85781C2.42344 9.85312 1.725 9.8625 1.6875 9.87656Z" fill="#FF751A"/>
<path d="M19.2984 9.87188C19.2797 9.89063 19.2656 9.94688 19.2656 9.99375C19.2656 10.1391 19.0875 10.4391 18.9422 10.5422C18.8672 10.5984 18.7266 10.6547 18.6281 10.6781L18.4453 10.7156L18.4312 11.1469L18.4172 11.5781H20.8594C22.2 11.5781 23.2969 11.5688 23.2969 11.5547C23.2969 11.4703 22.5375 10.0359 22.4531 9.96094C22.3547 9.87188 22.275 9.86719 20.8406 9.85313C20.0109 9.84844 19.3172 9.85313 19.2984 9.87188Z" fill="#FF751A"/>
<path d="M6.42188 11.1562V11.5781H12H17.5781V11.1562V10.7344H12H6.42188V11.1562Z" fill="#FF751A"/>
<path d="M0.421875 17.1328V21.8438H3.42188H6.42188V17.1328V12.4219H3.42188H0.421875V17.1328ZM2.46094 13.8844C2.58281 14.0297 2.5875 14.0391 2.56875 14.6156C2.55469 15.1875 2.55 15.1969 2.42344 15.3094C2.25 15.4594 2.02031 15.4594 1.85625 15.3047C1.73438 15.1922 1.73438 15.1828 1.73438 14.5781C1.73438 13.9875 1.73906 13.9594 1.85156 13.8516C2.025 13.6734 2.29688 13.6875 2.46094 13.8844ZM5.02031 13.8562C5.12344 13.9641 5.13281 14.0203 5.14688 14.4937C5.16563 15.0422 5.12344 15.2344 4.95 15.3516C4.8 15.4594 4.56094 15.4406 4.42969 15.3094C4.28438 15.1641 4.25156 14.9578 4.275 14.4047C4.29375 13.9828 4.30313 13.95 4.425 13.8469C4.60313 13.6875 4.86563 13.6922 5.02031 13.8562ZM2.46563 16.4672C2.58281 16.6078 2.58281 16.6266 2.56875 17.1937C2.55469 17.7656 2.55 17.775 2.42344 17.8875C2.27813 18.0094 2.11406 18.0328 1.95469 17.9437C1.75781 17.8406 1.73906 17.7656 1.73438 17.1516C1.73438 16.6266 1.74375 16.5469 1.82813 16.4391C1.99219 16.2328 2.27813 16.2422 2.46563 16.4672ZM5.025 16.4391C5.12344 16.5422 5.13281 16.6031 5.14688 17.1C5.15625 17.5828 5.14688 17.6672 5.06719 17.7984C4.87969 18.0984 4.425 18.0328 4.3125 17.6906C4.275 17.5875 4.26094 17.3344 4.275 17.0391C4.28906 16.6078 4.30313 16.5375 4.40156 16.4344C4.57969 16.2422 4.84219 16.2469 5.025 16.4391ZM2.32031 18.9C2.52656 18.9937 2.57813 19.1625 2.57813 19.7062C2.57813 20.2547 2.53125 20.4094 2.33906 20.5125C2.15156 20.6062 2.04375 20.5922 1.87969 20.4562L1.73438 20.3344V19.7156C1.73438 19.1297 1.73906 19.0875 1.84219 18.9984C2.01563 18.8391 2.13281 18.8156 2.32031 18.9ZM5.01563 19.0125C5.12344 19.1203 5.13281 19.1672 5.14688 19.6453C5.16563 20.2312 5.11875 20.4047 4.91719 20.5078C4.725 20.6109 4.6125 20.5922 4.44375 20.4422L4.28906 20.3062V19.7203C4.28906 19.2 4.29844 19.125 4.38281 19.0312C4.575 18.8156 4.80938 18.8109 5.01563 19.0125Z" fill="#FF751A"/>
<path d="M7.29844 12.4547C7.27969 12.4687 7.26562 14.5922 7.26562 17.1656V21.8438H8.55469H9.84375L9.85313 19.1953L9.86719 16.5469L9.99844 16.4203L10.125 16.2891H12H13.875L14.0016 16.4203L14.1328 16.5469L14.1469 19.1953L14.1563 21.8438H15.4453H16.7344L16.725 17.1422L16.7109 12.4453L12.0188 12.4312C9.44063 12.4266 7.3125 12.4359 7.29844 12.4547ZM11.025 13.4391C11.1234 13.5422 11.1328 13.6031 11.1469 14.1C11.1563 14.5828 11.1469 14.6672 11.0672 14.7984C10.8797 15.0984 10.425 15.0328 10.3125 14.6906C10.275 14.5875 10.2609 14.3344 10.275 14.0391C10.2891 13.6078 10.3031 13.5375 10.4016 13.4344C10.5797 13.2422 10.8422 13.2469 11.025 13.4391ZM13.5984 13.4344C13.6922 13.5375 13.7109 13.6125 13.725 14.0062C13.7484 14.5875 13.6875 14.8312 13.4906 14.9344C13.2797 15.0422 13.05 14.9859 12.9328 14.7984C12.8531 14.6672 12.8438 14.5828 12.8531 14.1C12.8672 13.5984 12.8766 13.5422 12.9797 13.4344C13.1578 13.2422 13.4203 13.2422 13.5984 13.4344Z" fill="#FF751A"/>
<path d="M17.5781 17.1328V21.8438H20.5781H23.5781V17.1328V12.4219H20.5781H17.5781V17.1328ZM19.5094 13.7859C19.6641 13.8703 19.7344 14.1187 19.7344 14.5781C19.7344 15.2016 19.6172 15.4219 19.2797 15.4219C18.9375 15.4219 18.8297 15.1875 18.8531 14.4937C18.8672 14.0203 18.8766 13.9641 18.9797 13.8562C19.1063 13.725 19.3359 13.6922 19.5094 13.7859ZM22.1484 13.8516C22.2609 13.9594 22.2656 13.9875 22.2656 14.5781C22.2656 15.1828 22.2656 15.1922 22.1438 15.3047C21.9797 15.4594 21.75 15.4594 21.5766 15.3094C21.45 15.1969 21.4453 15.1875 21.4313 14.6156C21.4125 14.0391 21.4172 14.0297 21.5391 13.8844C21.7031 13.6875 21.975 13.6734 22.1484 13.8516ZM19.5984 16.4344C19.6922 16.5375 19.7109 16.6125 19.725 17.0062C19.7484 17.5875 19.6875 17.8312 19.4906 17.9344C19.2797 18.0422 19.05 17.9859 18.9328 17.7984C18.8531 17.6672 18.8438 17.5828 18.8531 17.1C18.8672 16.5984 18.8766 16.5422 18.9797 16.4344C19.1578 16.2422 19.4203 16.2422 19.5984 16.4344ZM22.1953 16.4672C22.2844 16.5984 22.2938 17.7 22.2047 17.8172C22.0453 18.0234 21.7688 18.0516 21.5766 17.8875C21.45 17.775 21.4453 17.7609 21.4313 17.2266C21.4219 16.8844 21.4359 16.6312 21.4688 16.5516C21.5859 16.2609 22.0172 16.2141 22.1953 16.4672ZM19.5938 19.0125C19.7063 19.125 19.7109 19.1484 19.7109 19.7156V20.3062L19.5563 20.4422C19.3875 20.5922 19.275 20.6109 19.0828 20.5078C18.8813 20.4047 18.8344 20.2312 18.8531 19.65C18.8625 19.2141 18.8813 19.1203 18.9609 19.0312C19.1531 18.8156 19.3875 18.8109 19.5938 19.0125ZM22.1578 18.9937C22.2609 19.0875 22.2656 19.1297 22.2656 19.7156V20.3344L22.1203 20.4562C22.0406 20.5219 21.9375 20.5781 21.8859 20.5781C21.7359 20.5781 21.5391 20.4562 21.4781 20.3203C21.3984 20.1516 21.4078 19.2281 21.4875 19.0828C21.6234 18.8344 21.9422 18.7922 22.1578 18.9937Z" fill="#FF751A"/>
<path d="M10.7344 19.5V21.8438H12H13.2656V19.5V17.1562H12H10.7344V19.5Z" fill="#FF751A"/>
<path d="M0 23.1562V23.5781H2.78906H5.57813V23.1562V22.7344H2.78906H0V23.1562Z" fill="#FF751A"/>
<path d="M6.42188 23.3672V24H12H17.5781V23.3672V22.7344H12H6.42188V23.3672Z" fill="#FF751A"/>
<path d="M18.4219 23.1562V23.5781H21.2109H24V23.1562V22.7344H21.2109H18.4219V23.1562Z" fill="#FF751A"/>
</g>
<defs>
<clipPath id="clip0_21_5">
<rect width="24" height="24" fill="white"/>
</clipPath>
</defs>
</svg>
