<svg width="24" height="24" viewBox="0 0 24 24" fill="none" xmlns="http://www.w3.org/2000/svg">
<g clip-path="url(#clip0_53_2)">
<path opacity="0.971" fill-rule="evenodd" clip-rule="evenodd" d="M10.9453 -0.0234375C11.6328 -0.0234375 12.3203 -0.0234375 13.0078 -0.0234375C17.7078 0.564413 21.0593 3.00191 23.0625 7.28906C23.5451 8.46956 23.8498 9.68831 23.9766 10.9453C23.9766 11.6328 23.9766 12.3203 23.9766 13.0078C23.3887 17.7078 20.9512 21.0593 16.6641 23.0625C15.4836 23.5451 14.2648 23.8498 13.0078 23.9766C12.3203 23.9766 11.6328 23.9766 10.9453 23.9766C6.24534 23.3887 2.89378 20.9512 0.890625 16.6641C0.407997 15.4836 0.103309 14.2648 -0.0234375 13.0078C-0.0234375 12.3203 -0.0234375 11.6328 -0.0234375 10.9453C0.564413 6.24534 3.00191 2.89378 7.28906 0.890625C8.46956 0.407997 9.68831 0.103309 10.9453 -0.0234375ZM11.4141 1.85156C15.549 1.81285 18.6818 3.54723 20.8125 7.05469C22.5832 10.4797 22.5207 13.8703 20.625 17.2266C18.2201 20.8232 14.853 22.4092 10.5234 21.9844C7.27402 21.4194 4.81308 19.7241 3.14062 16.8984C1.36993 13.4735 1.43243 10.0828 3.32812 6.72656C5.22441 3.78959 7.91972 2.16459 11.4141 1.85156Z" fill="black"/>
<path opacity="0.976" fill-rule="evenodd" clip-rule="evenodd" d="M11.8828 5.50781C12.3893 5.5065 12.7253 5.74087 12.8907 6.21094C12.9063 7.99219 12.9219 9.77344 12.9375 11.5547C14.0938 12.4297 15.25 13.3047 16.4063 14.1797C16.7237 14.5901 16.7393 15.012 16.4532 15.4453C16.0485 15.8131 15.6032 15.8678 15.1172 15.6094C13.8829 14.6875 12.6484 13.7656 11.4141 12.8437C11.2766 12.7376 11.175 12.6048 11.1094 12.4453C11.032 10.37 11.0164 8.29181 11.0625 6.21094C11.1869 5.79712 11.4604 5.56275 11.8828 5.50781Z" fill="black"/>
</g>
<defs>
<clipPath id="clip0_53_2">
<rect width="24" height="24" fill="white"/>
</clipPath>
</defs>
</svg>
