<svg width="24" height="24" viewBox="0 0 24 24" fill="none" xmlns="http://www.w3.org/2000/svg">
<path fill-rule="evenodd" clip-rule="evenodd" d="M13.8563 4.93128C13.8563 5.9254 13.0504 6.73128 12.0563 6.73128C11.0622 6.73128 10.2563 5.9254 10.2563 4.93128C10.2563 3.93717 11.0622 3.13128 12.0563 3.13128C13.0504 3.13128 13.8563 3.93717 13.8563 4.93128ZM9.2158 13.7189C9.00668 13.4476 8.92357 13.0846 9.0226 12.7293L10.2976 8.15427C10.4644 7.55577 11.0848 7.20579 11.6833 7.37259C11.8704 7.42471 12.0331 7.52116 12.1635 7.64739L14.5087 9.16863H17.3066C17.8244 9.16863 18.2441 9.58836 18.2441 10.1061C18.2441 10.6239 17.8244 11.0436 17.3066 11.0436H14.2313C14.0502 11.0436 13.873 10.9912 13.7211 10.8927L12.1535 9.87586L11.453 12.3897L14.5039 12.5448C14.8199 12.5609 15.1065 12.7353 15.266 13.0087C15.4256 13.282 15.4364 13.6173 15.2948 13.9004L15.1448 14.2004L15.1421 14.2059L12.817 18.7809C12.5824 19.2425 12.0181 19.4265 11.5565 19.1919C11.0949 18.9573 10.9109 18.393 11.1455 17.9314L12.9685 14.3442L9.98365 14.1924C9.65165 14.1755 9.3688 13.9879 9.2158 13.7189ZM3.80629 7.03128C2.81218 7.03128 2.00629 7.83717 2.00629 8.83128V11.2313C2.00629 12.2254 2.81218 13.0313 3.80629 13.0313H6.20629C7.20041 13.0313 8.00629 12.2254 8.00629 11.2313V8.83128C8.00629 7.83717 7.20041 7.03128 6.20629 7.03128H3.80629ZM6.50629 15.7687C5.61574 15.7687 4.89379 16.4907 4.89379 17.3812C4.89379 18.2718 5.61574 18.9938 6.50629 18.9938C7.39685 18.9938 8.11879 18.2718 8.11879 17.3812C8.11879 16.4907 7.39685 15.7687 6.50629 15.7687ZM3.01879 17.3812C3.01879 15.4552 4.5802 13.8938 6.50629 13.8938C8.43239 13.8938 9.99379 15.4552 9.99379 17.3812C9.99379 19.3074 8.43239 20.8688 6.50629 20.8688C4.5802 20.8688 3.01879 19.3074 3.01879 17.3812ZM16.8938 17.3812C16.8938 16.4907 17.6157 15.7687 18.5063 15.7687C19.3968 15.7687 20.1188 16.4907 20.1188 17.3812C20.1188 18.2718 19.3968 18.9938 18.5063 18.9938C17.6157 18.9938 16.8938 18.2718 16.8938 17.3812ZM18.5063 13.8938C16.5803 13.8938 15.0188 15.4552 15.0188 17.3812C15.0188 19.3074 16.5803 20.8688 18.5063 20.8688C20.4324 20.8688 21.9938 19.3074 21.9938 17.3812C21.9938 15.4552 20.4324 13.8938 18.5063 13.8938Z" fill="black"/>
</svg>
