<svg width="24" height="24" viewBox="0 0 24 24" fill="none" xmlns="http://www.w3.org/2000/svg">
<g clip-path="url(#clip0_32_2)">
<path d="M11.2031 0.543748C11.1141 0.553123 10.8375 0.585936 10.5937 0.614061C6.25312 1.11094 2.48906 4.20469 1.10156 8.41406C0.693743 9.64687 0.539056 10.6547 0.543743 12.0469C0.548431 13.4625 0.721868 14.5078 1.15781 15.7687C2.31093 19.1109 5.02968 21.7828 8.41406 22.8984C9.64687 23.3062 10.6547 23.4609 12.0469 23.4562C13.4625 23.4516 14.5078 23.2781 15.7687 22.8422C19.1109 21.6891 21.7828 18.9703 22.8984 15.5859C23.3062 14.3531 23.4609 13.3453 23.4562 11.9531C23.4469 10.1016 23.1 8.57812 22.3078 6.95625C21.7594 5.83125 21.0234 4.80469 20.1094 3.89062C18.3281 2.10937 16.1109 1.00312 13.5844 0.632811C13.1156 0.562498 11.5359 0.506248 11.2031 0.543748ZM13.4297 2.11406C14.2922 2.67656 15.0937 3.75469 15.6984 5.16562C16.0406 5.95781 16.0359 5.925 15.7641 6.02344C15.6422 6.07031 15.4734 6.13594 15.3891 6.16875C14.8734 6.37031 13.6641 6.62812 12.9516 6.67969L12.5156 6.71719V4.20469V1.69219L12.7969 1.79062C12.9516 1.84219 13.2375 1.9875 13.4297 2.11406ZM11.4844 4.22344V6.71719L11.0531 6.67969C10.2375 6.61875 9.19687 6.38906 8.41874 6.09844C8.21718 6.01875 8.04374 5.94844 8.02968 5.93437C7.94999 5.85469 8.69062 4.27969 9.10312 3.65625C9.70312 2.75156 10.2984 2.19844 11.0391 1.86562C11.5312 1.64062 11.4844 1.3875 11.4844 4.22344ZM8.97187 2.16562C8.39062 2.775 7.74374 3.84844 7.26562 4.99219C7.16249 5.25 7.06406 5.46562 7.05468 5.475C7.00312 5.52656 5.86874 4.7625 5.21249 4.23281L5.10468 4.14375L5.47031 3.84844C6.15468 3.3 7.02656 2.77031 7.78124 2.4375C8.19374 2.25469 8.99531 1.96875 9.09374 1.96875C9.13124 1.96875 9.08437 2.04844 8.97187 2.16562ZM15.3937 2.11406C16.5516 2.5125 17.8547 3.24844 18.7219 3.99375L18.9 4.15312L18.5578 4.425C18.0844 4.8 17.0484 5.48437 16.95 5.48437C16.9406 5.48437 16.8609 5.31094 16.7812 5.09531C16.4016 4.11562 15.6703 2.86875 15.1172 2.25937C14.9719 2.1 14.8781 1.96875 14.9062 1.96875C14.9391 1.96875 15.1594 2.03437 15.3937 2.11406ZM4.73437 5.15625C5.22187 5.56406 5.85937 5.99531 6.49218 6.35156C6.62343 6.42187 6.73124 6.4875 6.73593 6.4875C6.74062 6.49219 6.68437 6.73594 6.60937 7.03125C6.33281 8.10937 6.11249 9.58125 6.06562 10.6641C6.05156 10.9969 6.03281 11.3203 6.01874 11.3766L5.99999 11.4844H3.76874H1.53749L1.56562 11.3531C1.57499 11.2828 1.60312 11.0766 1.61718 10.8984C1.79531 8.91094 2.73749 6.73594 4.09218 5.19375C4.25156 5.00625 4.39218 4.88906 4.42499 4.90781C4.45312 4.92187 4.59374 5.03437 4.73437 5.15625ZM19.9453 5.2125C21.3047 6.82969 22.2 8.8875 22.3828 10.8281C22.3969 10.9969 22.4203 11.2125 22.4344 11.3062L22.4625 11.4844H20.2359H18.0047L17.9812 11.2359C17.9672 11.1047 17.9437 10.7719 17.9297 10.5C17.8734 9.45 17.6578 8.0625 17.3906 7.03125C17.3156 6.73594 17.2594 6.49219 17.2641 6.49219C18.0469 6.06094 18.675 5.64844 19.2422 5.17969C19.4484 5.01562 19.6266 4.875 19.6406 4.87969C19.6547 4.87969 19.7906 5.02969 19.9453 5.2125ZM8.11874 7.07812C8.95781 7.3875 10.1531 7.64062 11.0766 7.71562L11.4844 7.74375V9.61406V11.4844H9.25312H7.02656L7.05468 10.9547C7.12968 9.60469 7.42031 7.70156 7.66406 6.99375C7.69218 6.91875 7.67343 6.91406 8.11874 7.07812ZM16.4391 7.41094C16.6828 8.42812 16.8797 9.83437 16.9406 10.9781L16.9687 11.4844H14.7422H12.5156V9.61406V7.74375L12.975 7.71094C13.8469 7.65 15.0562 7.38281 15.8672 7.08281C16.0734 7.00312 16.2609 6.94687 16.2891 6.95625C16.3125 6.96094 16.3781 7.16719 16.4391 7.41094ZM6.01874 12.6187C6.03281 12.6797 6.05156 12.9984 6.07031 13.3359C6.11718 14.4469 6.33281 15.8672 6.60937 16.9687C6.77343 17.5969 6.83906 17.4797 6.07499 17.9297C5.63437 18.1969 5.09999 18.5766 4.55156 19.0172L4.39218 19.1484L4.15781 18.8906C2.79374 17.3859 1.79531 15.1125 1.61718 13.1016C1.60312 12.9187 1.57499 12.7172 1.56562 12.6422L1.53749 12.5156H3.76874H5.99999L6.01874 12.6187ZM11.475 14.4L11.4609 16.2891L10.875 16.3406C9.94687 16.425 9.14999 16.5984 8.21718 16.9219C7.75312 17.0812 7.68749 17.0953 7.66874 17.025C7.39218 16.0687 7.12499 14.3297 7.05937 13.0172L7.03124 12.5156H9.25781H11.4844L11.475 14.4ZM16.9453 13.0406C16.9031 13.8328 16.7906 14.8031 16.6594 15.5391C16.5516 16.1297 16.5 16.3734 16.3547 16.9312L16.3125 17.1047L15.7828 16.9219C14.8641 16.6031 13.8891 16.3969 12.9609 16.3219L12.5391 16.2891L12.525 14.4L12.5156 12.5156H14.7422H16.9734L16.9453 13.0406ZM22.4297 12.8297C22.2141 15.1172 21.3937 17.0719 19.9266 18.8062L19.6219 19.1672L19.3594 18.9375C19.0031 18.6281 18.1734 18.0516 17.6719 17.7656L17.2594 17.5312L17.3953 17.0016C17.6578 15.975 17.9484 14.0672 17.9531 13.3547C17.9531 13.2094 17.9672 12.9609 17.9812 12.8016L18.0141 12.5156H20.2359H22.4625L22.4297 12.8297ZM11.4844 19.7812C11.4844 22.6078 11.5312 22.3547 11.0437 22.1391C10.1016 21.7219 9.27656 20.8125 8.57343 19.4062C8.28281 18.825 8.00624 18.1453 8.03906 18.0937C8.06718 18.0469 8.80781 17.7891 9.30468 17.6531C9.78749 17.5219 10.4484 17.4047 10.9922 17.3484C11.1984 17.325 11.3953 17.3062 11.4281 17.3016C11.4703 17.2969 11.4844 17.8219 11.4844 19.7812ZM13.125 17.3672C13.5703 17.4047 14.2172 17.5266 14.6953 17.6578C15.2062 17.7937 15.9328 18.0469 15.9609 18.0984C15.9984 18.1547 15.8156 18.6187 15.4922 19.2891C15.1687 19.9687 14.6719 20.7328 14.2781 21.1734C13.8187 21.6797 13.0969 22.1625 12.6656 22.2469L12.5156 22.275V19.7859V17.2922L12.6703 17.3156C12.75 17.3297 12.9562 17.3531 13.125 17.3672ZM7.22343 18.9C7.66406 20.0156 8.37656 21.2109 8.97187 21.8297C9.20156 22.0781 9.15468 22.0828 8.59218 21.8859C7.42499 21.4734 6.13124 20.7422 5.29687 20.0156L5.13281 19.875L5.29687 19.7344C5.60624 19.4719 6.18749 19.0547 6.62343 18.7875C6.85781 18.6422 7.05937 18.5203 7.05937 18.5203C7.06406 18.5156 7.13906 18.6891 7.22343 18.9ZM17.7609 19.0219C18.1922 19.3031 18.8437 19.8141 18.8437 19.8703C18.8437 19.9312 18.1969 20.4328 17.6719 20.775C17.0578 21.1781 16.1156 21.6422 15.4641 21.8625C15.1922 21.9562 14.9437 22.0312 14.9109 22.0312C14.8781 22.0312 14.9672 21.9047 15.1125 21.75C15.6469 21.1734 16.425 19.8422 16.8047 18.8578L16.9359 18.5203L17.1516 18.6422C17.2687 18.7125 17.5453 18.8812 17.7609 19.0219Z" fill="black"/>
</g>
<defs>
<clipPath id="clip0_32_2">
<rect width="24" height="24" fill="white"/>
</clipPath>
</defs>
</svg>
