<svg width="24" height="24" viewBox="0 0 24 24" fill="none" xmlns="http://www.w3.org/2000/svg">
<g clip-path="url(#clip0_83_2)">
<path opacity="0.965" fill-rule="evenodd" clip-rule="evenodd" d="M20.6016 -0.0234375C20.8672 -0.0234375 21.1328 -0.0234375 21.3985 -0.0234375C21.6644 0.0705806 21.9144 0.203393 22.1485 0.375C22.625 0.851564 23.1016 1.32812 23.5781 1.80469C23.7498 2.03875 23.8826 2.28875 23.9766 2.55469C23.9766 2.82031 23.9766 3.08594 23.9766 3.35156C23.9019 3.56344 23.8003 3.76656 23.6719 3.96094C20.0547 7.57814 16.4375 11.1953 12.8203 14.8125C11.674 15.0981 10.5177 15.348 9.35158 15.5625C8.62502 15.6484 8.30472 15.3281 8.39064 14.6016C8.6051 13.4354 8.85508 12.2791 9.14064 11.1328C12.7578 7.51561 16.375 3.89844 19.9922 0.28125C20.1866 0.15281 20.3897 0.0512475 20.6016 -0.0234375ZM20.8828 1.42969C20.9625 1.42218 21.0406 1.42999 21.1172 1.45312C21.5781 1.91406 22.0391 2.375 22.5 2.83594C22.5313 2.91406 22.5313 2.99219 22.5 3.07031C22.2337 3.34445 21.9603 3.61007 21.6797 3.86719C21.1328 3.35156 20.6016 2.82031 20.086 2.27344C20.3526 1.99123 20.6182 1.70998 20.8828 1.42969ZM19.0078 3.30469C19.5609 3.83428 20.1078 4.37334 20.6485 4.92188C17.7735 7.79686 14.8984 10.6719 12.0235 13.5469C11.3516 13.6828 10.6797 13.8157 10.0078 13.9453C10.1294 13.2516 10.2778 12.564 10.4531 11.8828C13.3142 9.02962 16.1657 6.17025 19.0078 3.30469Z" fill="black"/>
<path opacity="0.987" fill-rule="evenodd" clip-rule="evenodd" d="M18.0703 23.9766C12.7266 23.9766 7.38281 23.9766 2.03906 23.9766C0.960938 23.6797 0.273437 22.9922 -0.0234375 21.9141C-0.0234375 16.5703 -0.0234375 11.2266 -0.0234375 5.88281C0.264943 4.80539 0.952444 4.12571 2.03906 3.84375C5.74219 3.8125 9.44531 3.8125 13.1484 3.84375C13.5429 4.04754 13.6757 4.36786 13.5469 4.80469C13.4766 5.00002 13.3438 5.13281 13.1484 5.20313C9.6172 5.21874 6.08592 5.23439 2.55469 5.25C1.85938 5.32031 1.47656 5.70314 1.40625 6.39844C1.36006 11.509 1.37569 16.6184 1.45312 21.7266C1.63738 22.2446 2.00456 22.518 2.55469 22.5469C7.5547 22.5781 12.5547 22.5781 17.5547 22.5469C18.25 22.4766 18.6328 22.0937 18.7031 21.3984C18.7187 17.8672 18.7344 14.3359 18.75 10.8047C18.9538 10.4102 19.2741 10.2774 19.7109 10.4063C19.9897 10.5449 20.1382 10.7715 20.1562 11.0859C20.2016 14.6962 20.1859 18.3055 20.1094 21.9141C19.8274 23.0007 19.1477 23.6882 18.0703 23.9766Z" fill="black"/>
</g>
<defs>
<clipPath id="clip0_83_2">
<rect width="24" height="24" fill="white"/>
</clipPath>
</defs>
</svg>
