<svg width="24" height="24" viewBox="0 0 24 24" fill="none" xmlns="http://www.w3.org/2000/svg">
<g clip-path="url(#clip0_29_25)">
<path d="M2.25939 0.140624C1.42501 0.360937 0.703137 0.942187 0.332824 1.69219C-0.0234258 2.41406 1.17185e-05 1.68281 1.17185e-05 12C1.17185e-05 19.95 0.00938672 21.3047 0.0703242 21.5859C0.300012 22.6734 1.17657 23.5781 2.27814 23.8594C2.62501 23.9484 2.8172 23.9531 7.40626 23.9531H12.1688L12.4078 23.8359C12.7453 23.6672 12.9047 23.4141 12.9281 23.0156C12.9469 22.6359 12.8203 22.3594 12.5203 22.1484L12.3188 22.0078L7.53282 21.9844L2.7422 21.9609L2.5547 21.8578C2.32032 21.7312 2.1797 21.5859 2.08595 21.3656C2.02501 21.2109 2.01564 20.1891 2.01564 12C2.01564 3.81094 2.02501 2.78906 2.08595 2.63437C2.1797 2.41406 2.32032 2.26875 2.5547 2.14219L2.7422 2.03906L7.53282 2.01562L12.3188 1.99219L12.5203 1.85156C12.8203 1.64062 12.9469 1.36406 12.9281 0.984374C12.9047 0.585937 12.7453 0.332812 12.4078 0.164062L12.1688 0.0468741L7.38751 0.0515616C2.83126 0.0515616 2.58282 0.0562491 2.25939 0.140624Z" fill="black"/>
<path d="M16.6688 5.0625C16.036 5.26406 15.75 6.02812 16.1157 6.54844C16.186 6.64687 17.2032 7.67344 18.375 8.83594C19.5469 9.99375 20.5172 10.9594 20.5219 10.9781C20.5313 11.0016 17.8828 11.0156 14.6391 11.0156H8.73753L8.53128 11.1187C8.27347 11.2547 8.08597 11.4891 8.00628 11.775C7.89378 12.2016 8.11878 12.6656 8.53128 12.8766L8.73753 12.9844H14.6391C17.8828 12.9844 20.5313 12.9984 20.5219 13.0219C20.5172 13.0406 19.5469 14.0062 18.375 15.1641C17.2032 16.3266 16.186 17.3531 16.1157 17.4516C15.5485 18.2578 16.5141 19.3219 17.4047 18.8578C17.5922 18.7641 23.7938 12.6375 23.8969 12.4453C24 12.2578 24 11.7422 23.8969 11.5547C23.7938 11.3578 17.5922 5.23594 17.4 5.1375C17.2125 5.03906 16.8516 5.00156 16.6688 5.0625Z" fill="black"/>
</g>
<defs>
<clipPath id="clip0_29_25">
<rect width="24" height="24" fill="white"/>
</clipPath>
</defs>
</svg>
