<svg width="24" height="24" viewBox="0 0 24 24" fill="none" xmlns="http://www.w3.org/2000/svg">
<path d="M11.5078 1.14375C11.1047 1.24687 10.8141 1.41562 10.5 1.72969C10.1719 2.05781 10.0266 2.31094 9.92344 2.71875C9.85781 2.9625 9.77344 3.06094 6.83906 6.12187L3.82031 9.27187L2.48438 9.28594L1.14844 9.30469L0.88125 9.43594C0.58125 9.58125 0.295313 9.88125 0.13125 10.2094L0.0234375 10.4297V16.1016V21.7734L0.154688 22.0406C0.3 22.3406 0.595313 22.6219 0.928125 22.7906L1.14844 22.8984H12H22.8516L23.1281 22.7578C23.4328 22.6031 23.7094 22.3219 23.8688 21.9937L23.9766 21.7734V16.1016V10.4297L23.85 10.1719C23.6953 9.85312 23.4047 9.55312 23.1141 9.4125C22.9078 9.30937 22.8328 9.30469 21.5484 9.28125L20.1984 9.25781L17.1609 6.10312C14.2688 3.09844 14.1188 2.93437 14.0859 2.74219C14.0391 2.40469 13.8094 2.01094 13.4813 1.69219C12.9281 1.1625 12.2203 0.965624 11.5078 1.14375ZM12.4922 2.475C12.7828 2.67656 12.9 2.91562 12.8766 3.26719C12.8672 3.50625 12.8391 3.59062 12.7219 3.73594C12.5063 4.00781 12.2203 4.13906 11.9109 4.10625C11.6297 4.08281 11.4938 3.99844 11.2781 3.73594C11.1188 3.53437 11.0625 3.16406 11.1563 2.8875C11.2172 2.69531 11.5266 2.40937 11.7422 2.34375C11.9672 2.27344 12.2859 2.32969 12.4922 2.475ZM10.5938 4.86094C10.7906 5.04375 11.1703 5.24531 11.4609 5.32031C12.2203 5.51719 12.9703 5.30156 13.5469 4.72031L13.8188 4.44375L16.1203 6.84844C17.3859 8.16562 18.4219 9.26719 18.4219 9.28594C18.4219 9.30937 15.5203 9.32812 11.9719 9.32812C8.25469 9.32812 5.53125 9.30937 5.54063 9.28594C5.55 9.2625 6.59531 8.15625 7.86563 6.825L10.1766 4.40625L10.3266 4.57969C10.4109 4.67812 10.5281 4.80469 10.5938 4.86094ZM22.6594 10.6219C22.725 10.6875 22.7344 11.25 22.7344 16.1203C22.7344 20.2734 22.7203 21.5578 22.6781 21.6C22.6359 21.6422 20.2031 21.6562 12.0141 21.6562C1.44844 21.6562 1.40625 21.6562 1.3125 21.5625C1.21875 21.4687 1.21875 21.4266 1.22813 16.0547C1.24219 11.2969 1.25156 10.6312 1.3125 10.5937C1.35469 10.5656 5.38594 10.5469 11.9859 10.5469C21.5625 10.5469 22.5938 10.5562 22.6594 10.6219Z" fill="black"/>
<path d="M4.68748 13.3641C4.30779 13.4109 3.72654 13.6922 3.39373 13.9875C3.07029 14.2734 2.74217 14.7656 2.59685 15.1875C2.33435 15.9281 2.40935 16.9359 2.77029 17.5641C2.94373 17.8688 3.30935 18.2484 3.63279 18.4594C4.34998 18.9328 5.47498 18.9938 6.25779 18.6C6.9656 18.2438 7.55623 17.4422 7.71092 16.6266C7.79998 16.1672 7.79998 15.9094 7.71092 15.4922C7.59373 14.9438 7.35935 14.5219 6.94217 14.1047C6.49217 13.6547 6.07498 13.4391 5.51717 13.3641C5.11404 13.3078 5.12342 13.3078 4.68748 13.3641ZM5.67185 14.6906C5.89217 14.8031 6.1781 15.0797 6.28123 15.2859C6.4031 15.5203 6.4781 15.9984 6.4406 16.2938C6.37498 16.8516 5.96248 17.4094 5.51717 17.5594C5.22185 17.6578 4.78123 17.6297 4.51404 17.4938C4.25623 17.3625 3.96092 17.0109 3.86717 16.7344C3.78748 16.4953 3.76404 15.9188 3.82029 15.6469C3.90935 15.225 4.2281 14.8172 4.6031 14.6438C4.81404 14.55 5.45154 14.5781 5.67185 14.6906Z" fill="black"/>
<path d="M8.83594 13.4297C8.57344 13.5 8.41875 13.65 8.34844 13.9125C8.31563 14.0203 8.29688 14.9016 8.29688 16.2656C8.29688 18.3328 8.30156 18.4547 8.38594 18.5906C8.49844 18.7781 8.7375 18.8625 9.075 18.8344C9.54844 18.7922 9.65625 18.5859 9.65625 17.6906V17.1188L10.2797 17.1C10.9453 17.0719 11.1797 17.0156 11.5031 16.7906C11.7797 16.6031 12.0797 16.1672 12.1922 15.7875C12.3281 15.3375 12.3047 14.7047 12.1406 14.3719C11.9063 13.9078 11.4938 13.6078 10.8891 13.4531C10.4531 13.3406 9.22031 13.3266 8.83594 13.4297ZM10.7203 14.6391C11.0297 14.8031 11.1234 15.1734 10.9406 15.5391C10.8094 15.8156 10.6172 15.9 10.0969 15.9281L9.65625 15.9516V15.2344V14.5219L10.1156 14.5406C10.4203 14.5547 10.6172 14.5875 10.7203 14.6391Z" fill="black"/>
<path d="M13.3078 13.4016C13.0922 13.4719 12.9984 13.5422 12.9187 13.7063C12.8531 13.8469 12.8438 14.1281 12.8438 16.0641C12.8438 18.4219 12.8438 18.3938 13.0922 18.5813C13.2187 18.675 13.2891 18.6797 14.6766 18.6938L16.1297 18.7078L16.2937 18.5438C16.4391 18.3984 16.4531 18.3609 16.4531 18.1078C16.4531 17.6344 16.5 17.6484 15.1922 17.6344L14.0625 17.6203V17.1516V16.6875H14.8172C15.8344 16.6875 15.9844 16.6125 15.9844 16.0969C15.9844 15.6328 15.8344 15.5625 14.8359 15.5625H14.1094V15.0703V14.5781L14.8734 14.5734C16.1531 14.5688 16.2891 14.5172 16.2891 13.9969C16.2891 13.7625 16.2703 13.6734 16.1953 13.5938C16.0031 13.3781 15.8766 13.3594 14.6156 13.3641C13.9641 13.3641 13.3734 13.3828 13.3078 13.4016Z" fill="black"/>
<path d="M17.4422 13.4063C17.2453 13.4531 17.0578 13.5891 16.9828 13.7391C16.8891 13.9172 16.8984 18.225 16.9875 18.4453C17.1516 18.8344 17.8547 18.8953 18.1125 18.5484C18.2063 18.4219 18.2109 18.3422 18.2344 17.0063L18.2578 15.6L19.3078 17.1047C20.4609 18.7547 20.4938 18.7875 20.8922 18.7313C21.1688 18.6938 21.3609 18.5859 21.4688 18.4078C21.5578 18.2625 21.5625 18.1594 21.5625 16.125C21.5625 14.9531 21.5391 13.9078 21.5156 13.8094C21.4547 13.5328 21.2906 13.3969 20.9906 13.3688C20.6156 13.3406 20.4094 13.4391 20.2875 13.7203C20.1938 13.9359 20.1891 13.9875 20.2219 15.15C20.2359 15.8625 20.2313 16.3594 20.2078 16.3594C20.1844 16.3594 20.1563 16.3313 20.1422 16.2984C20.1328 16.2703 19.6969 15.6469 19.1813 14.925C18.5391 14.025 18.1875 13.5703 18.075 13.5047C17.8828 13.3828 17.6625 13.35 17.4422 13.4063Z" fill="black"/>
</svg>
