<svg width="24" height="24" viewBox="0 0 24 24" fill="none" xmlns="http://www.w3.org/2000/svg">
<g clip-path="url(#clip0_83_7)">
<path opacity="0.983" fill-rule="evenodd" clip-rule="evenodd" d="M19.5703 -0.0234375C19.8047 -0.0234375 20.0391 -0.0234375 20.2734 -0.0234375C20.8377 0.0789764 21.3377 0.321164 21.7734 0.703125C22.3608 1.27479 22.9311 1.86073 23.4844 2.46094C23.7171 2.79332 23.8812 3.1527 23.9766 3.53906C23.9766 3.88281 23.9766 4.22656 23.9766 4.57031C23.8618 4.97194 23.6821 5.34694 23.4375 5.69531C22.765 6.37566 22.0853 7.04752 21.3984 7.71094C19.6793 5.96836 17.9605 4.24179 16.2422 2.53125C16.914 1.85938 17.586 1.1875 18.2578 0.515625C18.6561 0.229498 19.0936 0.0498098 19.5703 -0.0234375Z" fill="black"/>
<path opacity="0.99" fill-rule="evenodd" clip-rule="evenodd" d="M0.773438 23.9766C0.601561 23.9766 0.429688 23.9766 0.257812 23.9766C0.148438 23.8984 0.0546877 23.8047 -0.0234375 23.6953C-0.0234375 23.5234 -0.0234375 23.3516 -0.0234375 23.1797C0.483178 21.2159 0.990989 19.2471 1.5 17.2734C5.91408 12.8594 10.3281 8.44533 14.7422 4.03125C14.7891 4 14.8359 4 14.8828 4.03125C16.5625 5.71092 18.2422 7.39064 19.9219 9.07031C19.9531 9.11719 19.9531 9.16406 19.9219 9.21094C15.5078 13.625 11.0938 18.039 6.67969 22.4531C4.70602 22.9621 2.73724 23.4699 0.773438 23.9766Z" fill="black"/>
</g>
<defs>
<clipPath id="clip0_83_7">
<rect width="24" height="24" fill="white"/>
</clipPath>
</defs>
</svg>
