<svg width="24" height="24" viewBox="0 0 24 24" fill="none" xmlns="http://www.w3.org/2000/svg">
<g clip-path="url(#clip0_69_2)">
<path fill-rule="evenodd" clip-rule="evenodd" d="M11.6484 -0.0234375C11.8672 -0.0234375 12.0859 -0.0234375 12.3047 -0.0234375C12.7258 0.108656 12.9992 0.389906 13.125 0.820312C13.1484 4.1484 13.1563 7.47652 13.1484 10.8047C16.4766 10.7969 19.8047 10.8047 23.1328 10.8281C23.5632 10.9539 23.8445 11.2274 23.9766 11.6484C23.9766 11.8672 23.9766 12.0859 23.9766 12.3047C23.8445 12.7258 23.5632 12.9992 23.1328 13.125C19.8047 13.1484 16.4766 13.1563 13.1484 13.1484C13.1563 16.4766 13.1484 19.8047 13.125 23.1328C12.9992 23.5632 12.7258 23.8445 12.3047 23.9766C12.0859 23.9766 11.8672 23.9766 11.6484 23.9766C11.2274 23.8445 10.9539 23.5632 10.8281 23.1328C10.8047 19.8047 10.7969 16.4766 10.8047 13.1484C7.47652 13.1563 4.1484 13.1484 0.820312 13.125C0.389906 12.9992 0.108656 12.7258 -0.0234375 12.3047C-0.0234375 12.0859 -0.0234375 11.8672 -0.0234375 11.6484C0.108656 11.2274 0.389906 10.9539 0.820312 10.8281C4.1484 10.8047 7.47652 10.7969 10.8047 10.8047C10.7969 7.47652 10.8047 4.1484 10.8281 0.820312C10.9539 0.389906 11.2274 0.108656 11.6484 -0.0234375Z" fill="black"/>
</g>
</svg>
