<svg width="24" height="24" viewBox="0 0 24 24" fill="none" xmlns="http://www.w3.org/2000/svg">
<g clip-path="url(#clip0_61_2)">
<path  fill-rule="evenodd" clip-rule="evenodd" d="M23.9766 8.88281C23.9766 9.53906 23.9766 10.1953 23.9766 10.8516C23.8915 11.0381 23.7509 11.1709 23.5547 11.25C15.8359 11.2813 8.1172 11.2813 0.398438 11.25C0.202257 11.1709 0.0616317 11.0381 -0.0234375 10.8516C-0.0234375 10.1953 -0.0234375 9.53906 -0.0234375 8.88281C0.0616317 8.6963 0.202257 8.5635 0.398438 8.48438C1.30469 8.46877 2.21094 8.45311 3.11719 8.4375C4.9553 6.17761 6.77564 3.90416 8.57812 1.61719C8.85914 1.41722 9.16383 1.37815 9.49219 1.5C9.73088 1.64141 9.84028 1.85235 9.82031 2.13281C9.82252 2.26382 9.79908 2.38882 9.75 2.50781C8.18184 4.49792 6.59592 6.47447 4.99219 8.4375C9.64842 8.46877 14.3047 8.46877 18.9609 8.4375C17.3572 6.47447 15.7713 4.49792 14.2031 2.50781C14.0015 1.71524 14.3062 1.36367 15.1172 1.45313C15.2031 1.50782 15.2891 1.5625 15.375 1.61719C17.1775 3.90416 18.9978 6.17761 20.8359 8.4375C21.7422 8.45311 22.6485 8.46877 23.5547 8.48438C23.7509 8.5635 23.8915 8.6963 23.9766 8.88281Z" fill="black"/>
<path  fill-rule="evenodd" clip-rule="evenodd" d="M1.52344 12.7266C8.48433 12.6719 15.4531 12.6641 22.4297 12.7031C21.5206 15.8315 20.6222 18.9643 19.7344 22.1016C19.6641 22.2969 19.5313 22.4297 19.3359 22.5C14.4297 22.5313 9.52345 22.5313 4.61719 22.5C4.42187 22.4297 4.28906 22.2969 4.21875 22.1016C3.33371 18.9668 2.43527 15.8418 1.52344 12.7266ZM7.38281 14.0859C7.82845 14.1645 8.07066 14.4301 8.10938 14.8828C8.33845 16.2496 8.56505 17.6168 8.78906 18.9844C8.69095 19.5957 8.34722 19.7988 7.75781 19.5937C7.53553 19.4227 7.41834 19.1962 7.40625 18.9141C7.17717 17.5473 6.95058 16.1801 6.72656 14.8125C6.77723 14.4106 6.996 14.1684 7.38281 14.0859ZM16.5703 14.0859C17.0735 14.1748 17.3001 14.4716 17.25 14.9766C17.0202 16.4182 16.7701 17.8557 16.5 19.2891C16.3199 19.615 16.0465 19.7322 15.6797 19.6406C15.3173 19.4863 15.1688 19.2128 15.2344 18.8203C15.4637 17.4288 15.6981 16.0382 15.9375 14.6484C16.0404 14.3343 16.2514 14.1468 16.5703 14.0859ZM11.7422 14.1328C12.2542 14.0717 12.5588 14.2905 12.6562 14.7891C12.6875 16.1953 12.6875 17.6016 12.6562 19.0078C12.4892 19.6654 12.1065 19.8294 11.5078 19.5C11.38 19.3614 11.3097 19.1974 11.2969 19.0078C11.2656 17.6016 11.2656 16.1953 11.2969 14.7891C11.3187 14.4785 11.4672 14.2597 11.7422 14.1328Z" fill="black"/>
</g>
</svg>
