<svg width="24" height="24" viewBox="0 0 24 24" fill="none" xmlns="http://www.w3.org/2000/svg">
<g clip-path="url(#clip0_87_2)">
<path opacity="0.985" fill-rule="evenodd" clip-rule="evenodd" d="M2.64844 -0.0234375C4.28906 -0.0234375 5.92969 -0.0234375 7.57031 -0.0234375C7.12238 2.3179 6.65363 4.65384 6.16406 6.98438C4.17975 7.00781 2.19537 7.01564 0.210938 7.00781C0.803925 4.83023 1.42111 2.65838 2.0625 0.492188C2.20893 0.259512 2.40425 0.0876366 2.64844 -0.0234375Z" fill="black"/>
<path opacity="0.987" fill-rule="evenodd" clip-rule="evenodd" d="M9.58594 -0.0234375C11.1797 -0.0234375 12.7734 -0.0234375 14.3672 -0.0234375C14.8537 2.31537 15.3225 4.65912 15.7734 7.00781C13.2422 7.00781 10.7109 7.00781 8.17969 7.00781C8.63067 4.65912 9.09942 2.31537 9.58594 -0.0234375Z" fill="black"/>
<path opacity="0.985" fill-rule="evenodd" clip-rule="evenodd" d="M16.3828 -0.0234375C18.0234 -0.0234375 19.6641 -0.0234375 21.3047 -0.0234375C21.5489 0.0876366 21.7442 0.259512 21.8906 0.492188C22.532 2.65838 23.1492 4.83023 23.7422 7.00781C21.7577 7.01564 19.7734 7.00781 17.7891 6.98438C17.2995 4.65384 16.8307 2.3179 16.3828 -0.0234375Z" fill="black"/>
<path opacity="0.979" fill-rule="evenodd" clip-rule="evenodd" d="M-0.0234375 7.94531C7.97658 7.94531 15.9765 7.94531 23.9766 7.94531C23.9766 8.42967 23.9766 8.91408 23.9766 9.39844C23.7458 10.2462 23.199 10.7697 22.3359 10.9688C21.1016 11 19.8672 11 18.6328 10.9688C17.7558 10.7636 17.2011 10.2246 16.9688 9.35156C16.7734 10.2344 16.2344 10.7734 15.3516 10.9688C13.1016 11 10.8516 11 8.60156 10.9688C7.71877 10.7734 7.1797 10.2344 6.98438 9.35156C6.78577 10.1283 6.30919 10.6517 5.55469 10.9219C4.24409 10.998 2.93159 11.0136 1.61719 10.9688C0.754139 10.7697 0.207264 10.2462 -0.0234375 9.39844C-0.0234375 8.91408 -0.0234375 8.42967 -0.0234375 7.94531Z" fill="black"/>
<path opacity="0.988" fill-rule="evenodd" clip-rule="evenodd" d="M22.2891 23.9766C18.5078 23.9766 14.7266 23.9766 10.9453 23.9766C10.9683 20.8488 10.9448 17.7238 10.875 14.6016C10.7302 14.2849 10.488 14.0895 10.1484 14.0156C8.36719 13.9844 6.58594 13.9844 4.80469 14.0156C4.46509 14.0895 4.2229 14.2849 4.07813 14.6016C4.0083 17.7238 3.98486 20.8488 4.00781 23.9766C3.22656 23.9766 2.44531 23.9766 1.66406 23.9766C1.3022 23.8566 1.07564 23.6066 0.984376 23.2266C0.960938 19.4141 0.953124 15.6016 0.960938 11.7891C1.28161 11.8829 1.60974 11.9376 1.94531 11.9531C3.13388 11.9947 4.32138 11.979 5.50781 11.9062C6.05709 11.7878 6.54145 11.5457 6.96094 11.1797C7.53961 11.6718 8.21147 11.9296 8.97656 11.9531C11.1494 11.9973 13.3212 11.9817 15.4922 11.9062C16.0615 11.8012 16.5615 11.559 16.9922 11.1797C17.4117 11.5457 17.896 11.7878 18.4453 11.9062C19.6318 11.979 20.8192 11.9947 22.0078 11.9531C22.3434 11.9376 22.6715 11.8829 22.9922 11.7891C23 15.6016 22.9922 19.4141 22.9688 23.2266C22.8775 23.6066 22.6509 23.8566 22.2891 23.9766ZM13.8047 13.9922C15.586 13.9844 17.3672 13.9922 19.1484 14.0156C19.5422 14.1126 19.8 14.3547 19.9219 14.7422C19.9531 15.8985 19.9531 17.0547 19.9219 18.2109C19.8 18.5984 19.5422 18.8406 19.1484 18.9375C17.3672 18.9688 15.5859 18.9688 13.8047 18.9375C13.4109 18.8406 13.1531 18.5984 13.0312 18.2109C13 17.0547 13 15.8985 13.0312 14.7422C13.1615 14.3541 13.4193 14.1041 13.8047 13.9922Z" fill="black"/>
</g>
<defs>
<clipPath id="clip0_87_2">
<rect width="24" height="24" fill="white"/>
</clipPath>
</defs>
</svg>
