<svg width="24" height="24" viewBox="0 0 24 24" fill="none" xmlns="http://www.w3.org/2000/svg">
<g clip-path="url(#clip0_29_22)">
<path d="M11.1563 0.0281271C11.0672 0.0375021 10.7906 0.0703146 10.5469 0.0937521C9.00001 0.262502 7.28907 0.843752 5.90626 1.66875C4.14845 2.71875 2.71876 4.14844 1.66876 5.90625C0.84845 7.275 0.3047 8.86875 0.0843872 10.5469C0.00938721 11.1234 0.00938721 12.8766 0.0843872 13.4531C0.468762 16.3734 1.75314 18.8438 3.92814 20.8641C5.12814 21.9844 6.62345 22.8563 8.25001 23.3906C9.53439 23.8172 10.5516 23.9719 12 23.9719C13.0688 23.9719 13.5422 23.9297 14.4844 23.7375C17.7141 23.0766 20.5969 21.0047 22.3313 18.0938C23.1516 16.725 23.6953 15.1313 23.9156 13.4531C23.9906 12.8766 23.9906 11.1234 23.9156 10.5469C23.6953 8.86875 23.1516 7.275 22.3313 5.90625C21.2813 4.14844 19.8516 2.71875 18.0938 1.66875C16.7391 0.857815 15.1219 0.30469 13.5 0.0937521C13.0875 0.0375021 11.4469 -0.0046854 11.1563 0.0281271ZM12.9609 1.45313C15.6938 1.70625 18.3328 3.07969 20.0719 5.15625C22.8469 8.46563 23.3672 13.0313 21.4125 16.8422C21.1734 17.3063 20.4422 18.4453 20.4094 18.4078C20.3953 18.3984 20.3063 18.2203 20.2078 18.0188C19.2563 16.0453 17.4844 14.3953 15.45 13.575C15.1875 13.4672 14.9719 13.3594 14.9719 13.3359C14.9766 13.3078 15.0984 13.1906 15.2438 13.0641C15.9844 12.45 16.5891 11.4141 16.8047 10.3922C17.4516 7.36406 15.0938 4.45313 12 4.45313C8.90626 4.45313 6.54845 7.36406 7.19532 10.3922C7.41095 11.4141 8.01564 12.45 8.75626 13.0641C8.90157 13.1906 9.03282 13.3078 9.04689 13.3266C9.06095 13.35 8.84532 13.4578 8.57345 13.5656C6.51564 14.3953 4.74845 16.0359 3.7922 18.0188C3.69376 18.2203 3.6047 18.3984 3.59064 18.4078C3.55782 18.4453 2.82657 17.3063 2.58751 16.8422C0.632825 13.0313 1.15314 8.46563 3.92814 5.15625C6.10782 2.55469 9.55314 1.13906 12.9609 1.45313ZM12.8672 5.96719C14.1281 6.31875 15.1078 7.31719 15.4266 8.57813C15.4641 8.72344 15.4922 9.07031 15.4922 9.375C15.4922 9.95156 15.4359 10.2563 15.2438 10.7109C14.8078 11.7375 13.8844 12.525 12.7969 12.8016C12.4641 12.8859 11.5359 12.8859 11.2031 12.8016C10.1156 12.525 9.1922 11.7375 8.75626 10.7109C8.56407 10.2563 8.50782 9.95156 8.50782 9.375C8.50782 8.79844 8.56407 8.49375 8.75626 8.03906C9.1922 7.00781 10.1859 6.16406 11.2031 5.95781C11.3438 5.92969 11.5031 5.89688 11.5547 5.8875C11.7281 5.84531 12.6281 5.90156 12.8672 5.96719ZM12.9891 14.3719C14.5828 14.5922 15.9656 15.225 17.1563 16.2797C18.0563 17.0766 18.8484 18.2438 19.2563 19.3641L19.3547 19.6266L18.9469 19.9781C17.8313 20.9344 16.6688 21.6 15.3281 22.0453C13.1672 22.7672 10.8328 22.7672 8.67189 22.0453C7.33126 21.6 6.16876 20.9344 5.05314 19.9781L4.64532 19.6266L4.74376 19.3641C4.79532 19.2188 4.94064 18.8906 5.0672 18.6328C6.49689 15.6844 9.76876 13.9219 12.9891 14.3719Z" fill="black"/>
</g>
<defs>
<clipPath id="clip0_29_22">
<rect width="24" height="24" fill="white"/>
</clipPath>
</defs>
</svg>
